<svg xmlns="http://www.w3.org/2000/svg" xmlns:xlink="http://www.w3.org/1999/xlink" width="300" height="210" viewBox="0 0 300 210">
  <defs>
    <clipPath id="clip-custom_1">
      <rect width="300" height="210"/>
    </clipPath>
  </defs>
  <g id="custom_1" data-name="custom – 1" clip-path="url(#clip-custom_1)">
    <rect width="300" height="210" fill="#fff"/>
    <g id="Path_1" data-name="Path 1" transform="translate(-7.518 -13.674)" fill="#fff">
      <path d="M0,0H314.286V223.674H0Z" stroke="none"/>
      <path d="M 1 0.999969482421875 L 1 222.6737670898438 L 313.2861633300781 222.6737670898438 L 313.2861633300781 0.999969482421875 L 1 0.999969482421875 M 0 -3.0517578125e-05 L 314.2861633300781 -3.0517578125e-05 L 314.2861633300781 223.6737670898438 L 0 223.6737670898438 L 0 -3.0517578125e-05 Z" stroke="none" fill="rgba(112,112,112,0.25)"/>
    </g>
    <path id="image-not-found" d="M408.808,397.966A14.03,14.03,0,1,1,394.76,412,14.038,14.038,0,0,1,408.808,397.966ZM354.043,347H415.4a5.059,5.059,0,0,1,5.044,5.034V397.06a18.7,18.7,0,0,0-5.31-2.882V353.255a.873.873,0,0,0-.3-.675,1,1,0,0,0-.678-.3H355.242a.873.873,0,0,0-.678.3.99.99,0,0,0-.3.675V398.28h.021L374.876,378.6a2.019,2.019,0,0,1,2.861.147c.021.023.021.043.042.043l17.309,20.452a18.749,18.749,0,0,0-3.909,18.683H354.044A5.064,5.064,0,0,1,349,412.887v-60.85a5,5,0,0,1,1.483-3.557,5.057,5.057,0,0,1,3.56-1.48Zm42.436,50.871,2.386-14.659a2.032,2.032,0,0,1,2.331-1.673,2.113,2.113,0,0,1,1.1.554l11.013,11.554a18.783,18.783,0,0,0-16.832,4.224Zm5.15-39.337a7.3,7.3,0,1,1-5.171,2.138A7.325,7.325,0,0,1,401.629,358.534Zm2.472,44.93,12.852,13.885A9.75,9.75,0,0,0,404.1,403.462Zm9.413,17.062-12.852-13.888a9.748,9.748,0,0,0,12.852,13.888Z" transform="translate(-236 -296.275)" fill="#8c8c8c" stroke="#8c8c8c" stroke-width="1" fill-rule="evenodd"/>
    <text id="NOT_FOUND" data-name="NOT FOUND" transform="translate(96 154)" fill="#8c8c8c" font-size="20" font-family="Roboto-Black, Roboto" font-weight="800"><tspan x="0" y="0">NOT FOUND</tspan></text>
  </g>
</svg>
