<svg xmlns="http://www.w3.org/2000/svg" width="451.23" height="512" viewBox="0 0 451.23 512">
  <g id="gift" transform="translate(-30.386 -0.001)">
    <g id="Group_13" data-name="Group 13">
      <path id="Path_7" data-name="Path 7" d="M481.616,149.553l-25.65-70.475a45.047,45.047,0,0,0-57.675-26.894L351.13,69.35c.076-.461.155-.922.221-1.387C354.444,46.216,345.337,25.221,327,11.8a60.858,60.858,0,0,0-96.107,40.023L224.15,95.283l-34.842-30.8a60.39,60.39,0,0,0-58.46-12.491c-45.151,14.11-57.506,71.958-22.5,103.38.629.564,1.271,1.108,1.919,1.644L60.01,175.311a44.973,44.973,0,0,0-26.893,57.674L58.768,303.46,90.71,291.906V467a44.879,44.879,0,0,0,44.8,45H435.5a45.05,45.05,0,0,0,45-45V240.008H233.1ZM408.551,80.374a15.016,15.016,0,0,1,19.224,8.965l15.392,42.285-140.95,51.3-20.52-56.38ZM260.545,56.346a30.858,30.858,0,0,1,48.737-20.331C329.436,50.759,324.6,79,301.619,87.371L271.435,98.357,252.99,105.07Zm-7.04,80.46,20.52,56.379-28.19,10.261-20.52-56.38ZM139.795,80.624a30.626,30.626,0,0,1,29.644,6.334l38.88,34.37c-11.28,4.106-37.952,13.814-48.77,17.75a30.408,30.408,0,0,1-31.16-6.034C110.347,116.852,117.224,87.678,139.795,80.624ZM76.7,265.009,61.305,222.724A14.994,14.994,0,0,1,70.27,203.5l126.855-46.171,20.52,56.379Zm253.806,5H450.7V467a15.189,15.189,0,0,1-15.2,15h-105Zm-60,0h30.2V482H270.5Zm-29.8,0V482h-105.2a15.017,15.017,0,0,1-15-15V280.987l30.166-10.98Z" fill="#dc143c"/>
    </g>
  </g>
</svg>
