<svg xmlns="http://www.w3.org/2000/svg" width="620" height="612" viewBox="0 0 620 612">
  <g id="UnknownUser" transform="translate(98.78 1484.215)">
    <rect id="Rectangle_1" data-name="Rectangle 1" width="620" height="612" transform="translate(-98.78 -1484.215)" fill="#fff"/>
    <path id="Path_1" data-name="Path 1" d="M260.515-1171.724q0,22.2-13.507,35.062T211.113-1123.8H49.4q-22.388,0-35.895-12.859T0-1171.724q0-9.806.648-19.15a188.441,188.441,0,0,1,2.59-20.168,156.836,156.836,0,0,1,4.9-20.075,95.117,95.117,0,0,1,7.956-18.04,65.049,65.049,0,0,1,11.471-14.987,48.268,48.268,0,0,1,15.82-9.9,55.563,55.563,0,0,1,20.63-3.7q1.665,0,7.771,3.978t13.784,8.881A87.422,87.422,0,0,0,105.557-1256a79.874,79.874,0,0,0,24.7,3.978,79.874,79.874,0,0,0,24.7-3.978,87.422,87.422,0,0,0,19.983-8.881q7.679-4.9,13.784-8.881t7.771-3.978a55.563,55.563,0,0,1,20.63,3.7,48.268,48.268,0,0,1,15.82,9.9,65.049,65.049,0,0,1,11.471,14.987,95.115,95.115,0,0,1,7.956,18.04,156.841,156.841,0,0,1,4.9,20.075,188.431,188.431,0,0,1,2.59,20.168Q260.515-1181.53,260.515-1171.724Zm-59.208-165.227q0,29.419-20.815,50.234T130.257-1265.9q-29.419,0-50.234-20.815t-20.815-50.234q0-29.419,20.815-50.234T130.257-1408q29.419,0,50.234,20.815T201.307-1336.951Z" transform="translate(80.609 87.937)" fill="#999"/>
  </g>
</svg>
