<svg xmlns="http://www.w3.org/2000/svg" width="632.203" height="445.216" viewBox="0 0 632.203 445.216">
  <g id="Screenshot_198_" data-name="Screenshot (198)" transform="translate(-0.041 0.101)">
    <path id="Path_1" data-name="Path 1" d="M1170.93,445.27c11.44,2.45,18.25,13.27,18.07,23.7-.29,17.16-.06,34.33,0,51.5v5.78c1.82.12,3.24.3,4.67.3,19.5,0,39,.06,58.5,0,12.45,0,22.69,9,24.88,21.49a9.408,9.408,0,0,1-.07,2,24.622,24.622,0,0,0-.9,4.57c-.09,21.47-.1,42.93-.14,64.4l-5.88,1V576.15c0-1.46.36-3.17-2-3.15,0-2.16.13-4.32,0-6.46a32.646,32.646,0,0,0-1-4.53c-2.86-.29-3.38,2.16-4.54,3.87-5,7.3-9.61,14.83-15,21.83-3.67,4.81-7.13,9.92-12.26,13.55-2.23,1.57-3.82,4-6,5.79-3.82,3.13-8,5.83-11.74,9-7,6-14.75,10.63-22.79,14.9a157.676,157.676,0,0,1-28.42,11.52c-8.41,2.54-16.79,4.78-25.54,5.61a18.5,18.5,0,0,0-3.89,1.33c0,4.18-.18,8.17,0,12.13.26,4.46-1.14,8.45-2.58,12.53-2.14,6.09-7.22,8.15-11.6,1.7a43.651,43.651,0,0,1,1.49-6.29c2.49-6.28,1.51-12.69,1.52-19.52H1117c0-1.46-.69-2-2.14-2q-12.37.06-24.75,0c-1.46,0-2.14.57-2.11,2-2.82,0-5.64,0-8.46.15s-3.82,1.43-4.27,4.24c-.65,4.09,1.15,7.71,1.9,11.49,2.44,12.32,14.45,22.1,28.61,19.18,4-.83,8-2,12-3a4.222,4.222,0,0,0,.47,1.39c3.73,4.43,3.47,6.52-1.43,9.15-8.84,4.76-18,6.33-27.57,2.28-8.4-3.57-15.32-8.66-19.56-17.28a44.072,44.072,0,0,1-4.53-20c0-2.77-.13-5.53-.21-8.44-4.46-.44-8.39-.81-12.33-1.22a13.149,13.149,0,0,1-2.41-.46c-2.66-.77-5.26-2-8-2.31-9.49-1.13-18.36-4.59-26.88-8.33a159.488,159.488,0,0,1-33.66-19.68c-4.55-3.54-9.42-6.77-13.53-10.77s-7.49-8.81-11.19-13.27L956,592l-1.05-.45a.84.84,0,0,0-.6-.53L947,581.83,946,580c-1-.86-2.06-1.68-3-2.59s-1.61-1.7-2.41-2.56c-1.7-4.15-3.25-8.37-5.18-12.4-.89-1.86-2.63-2.44-4.29-.46l-1.78-.59c-2.78-.89-3.84-4.6-7.27-4.42-1.54-6.14-.17-7.31-7.41-8.27-.24,0-.42-.47-.63-.71a4.88,4.88,0,0,0,0-.66l6-.1.92-.2.1-.08.9-2c.27-.73.53-1.46.79-2.19A1.349,1.349,0,0,0,923,542l3.79-6.16,1.07-1h0c.38-.54.76-1.07,1.13-1.61l1.3-1.25,1.64-1.14c4.16-3.86,9.31-4.77,14.7-4.78q27.9-.08,55.8,0h5.63v-7.92c.24-3.1.77-6.21-.37-9.17H677.18l-1,3.08c-2-.66-4.21-1-6-2.08s-3.08-.34-4.61,0c-.55-1.88-2.06-1.88-3.6-1.86h-10.5c-4.43,0-6.42-1.74-6.48-6.18-.1-7.66.17-15.33-.11-23-.15-3.93,1.54-6.23,4.71-8,5.81-3.19,11.58-6.48,17.4-9.66,15.68-8.57,31.39-17.08,47.06-25.67s31.32-17.29,47-25.92q29.16-16.07,58.35-32.11L858.56,356a8.1,8.1,0,0,1,8.21-.22q31.13,17,62.23,34c16.11,8.88,32.13,17.93,48.19,26.9s32.1,17.94,48.19,26.83c1.37.76,3.08.88,4.64,1.3,1.35,1.61,2.71,1.62,4.06,0H1050a17.081,17.081,0,0,0,4,1.05c7.48.1,15,.05,22.43.05q42.86,0,85.71-.05c1.65,0,3.68,1,5-1.05l3,.13ZM1098,621.13l3-.27,5,.24,1.86.35c.16.46.21,1.22.5,1.31,4.5,1.56,6.94,5.7,10.55,8.36.93,2.61,1.87,5.21,2.74,7.64,58.86-.83,117.82-39.9,140.34-97.27-3.64-4.07-8.28-5-13.94-4.16l-3,7.68c-.94,1.49-1.91,3-2.82,4.48-3.29,5.48-6.44,11-9.87,16.43-1.56,2.44-6.12,3-8.48,1.39-2.05-1.37-2.43-4.11-.94-7.14.36-.73.94-1.35,1.34-2.06,1.64-3,3.25-6,4.88-9.05.1-1,.21-2,.32-3,3.92-1.89,5.64-5.09,5.54-9.36-.72-3.25-3.32-1.61-4.92-1.61q-140.37-.17-280.75-.11a21.114,21.114,0,0,0-4,.09c-.53.11-.89,1.09-1.32,1.67l-8.15,4.42,3.2,7.8c-1.63,0-2.87.52-2.88,2.86L940,551l4.11,7.68-1.42,4.12,4,.21L960,581.94c-.3.85-.61,1.69-1,2.87l3.21.18c3.44,3.12,7.07,6.06,10.29,9.39,12.4,12.8,27.08,22.21,43,30,11.78,5.71,24.5,8.65,36.75,13a6.168,6.168,0,0,0,1.89.38c2.08,0,4.17-.18,6.24,0,6.74.53,13.47,1.18,20.26,1.8,1.13-2.91,2-5.22,2.94-7.52C1087.7,627.39,1092,623.06,1098,621.13Zm62-151.24c1,1.48,1.77,3.31,3.13,4.35a4.29,4.29,0,0,1,2,3.62c-.41,1-1.18,1.94-1.19,2.92-.08,13.45,0,26.89-.06,40.34,0,1.75.06,3.38,2.24,3.82,3.11,2.54,6.61,1.2,10,.83.67-.07,1.5-1.27,1.75-2.11a12.462,12.462,0,0,0,.16-3.47V467.76a22.071,22.071,0,0,0-.3-4.46c-.13-.57-1.13-.95-1.73-1.41l-.77-2.57,1.54-.75-5.75-6.08a41.591,41.591,0,0,0-5.28.6c-.7.16-1.21,1.13-1.81,1.73-1.16.09-2.31.25-3.46.25H1037.39c-1.15,0-2.3-.16-3.46-.24l-1.29-1.76L1031,454.9l-1.93.28-1.88-3.07-1.07.16v4.05c-5.06,3.31-7,8.09-6.92,14,.09,17.45,0,34.91.08,52.36a26.774,26.774,0,0,0,.51,3.57H1026c.38,1.26.77,2.52,1,3.22,3.07-.59,5.36-1.14,7.69-1.44,3.26-.42,4.38-1.87,3.73-5.19s1-5.69,5-6.84c.26,3.24.53,6.49.79,9.72h111.13V483.45c0-3.68-1-4.45-5-4.46H1049.9c-5.23,0-6,.76-6,6.11v10.48c-.11,5.8-.29,11.6-.44,17.4-4.6,0-3.6-4.25-5.13-6.84l-2.73,1.71c-1.09-6.87-.81-17.3.67-17.62l2.16,3.28c.68-6.6,1.28-12.33,1.89-18.31l-2.64-1.49c.09-3.17,2.31-4.34,4.9-4.7a88.549,88.549,0,0,1,11.83-1q47.91-.12,95.83,0a56.422,56.422,0,0,1,7.78,1.09ZM1008,500a27.3,27.3,0,0,0-5.06-.95q-73.19-.07-146.37,0H679.23a32.438,32.438,0,0,1-5.12-.81c1.82-.1,3.64-.29,5.46-.29h323.21c1.73,0,3.46-.32,5.52-.52,0-4-.06-7.5,0-11,.15-8.94-.73-17.92,1.26-26.77l5.62-8.87a12.794,12.794,0,0,0-1.65-1.38q-25.9-14.49-51.84-28.95l-51.41-28.69c-14.37-8-28.78-16-43.08-24.11a6.47,6.47,0,0,0-7.3,0c-12,6.81-24.15,13.41-36.25,20.05q-37.65,20.5-75.3,41.11-33.89,18.62-67.74,37.3-10.935,6-21.89,12c-1.45.8-3,1.49-3,3.58v15.77h8.8l6.34.7-5.31,1.37V500H679c-.06,1.95,1.25,2,2.68,2h17.48a13.843,13.843,0,0,1,4,.15c4.25,1.28,8.36,1,12.67.09a24.67,24.67,0,0,1,9.42,0,31.85,31.85,0,0,0,14.66-.09,8.55,8.55,0,0,1,4,0,36.34,36.34,0,0,0,17.13,0,7.54,7.54,0,0,1,3.47-.06,38.331,38.331,0,0,0,18.13,0,7.54,7.54,0,0,1,3.47.07,34.93,34.93,0,0,0,16.14,0c2.17-.46,4.57.3,6.87.34,4.27.08,8.55,0,12.82,0h7.27c3.46,0,6.92.21,10.37.11,3.29-.08,6.67-1.07,9.82-.52,5.46.94,10.73,1.3,16.15-.05,1.67-.41,3.59.26,5.39.31,3.61.12,7.22.24,10.82.18,3.29-.06,6.7-1,9.84-.42a35.92,35.92,0,0,0,15.65-.07,9.649,9.649,0,0,1,4.47,0,34.52,34.52,0,0,0,16.63,0,10.491,10.491,0,0,1,5,.09,25.52,25.52,0,0,0,12.67,0,22.241,22.241,0,0,1,8.94,0c5.11,1,10.07,1.35,15.15,0a13,13,0,0,1,4.44.09c1.79.17,3.56.68,5.34.72,7.53.14,15.06-1.14,22.6,0a13,13,0,0,0,3,0C1007.19,502.84,1008,501.76,1008,500Zm48.65-22.58c11.38-1.72,22,2.16,31.89-3.09,1.53-.81,3.9-1,4.94.91,1.18,2.19,2.94,1.76,4.68,1.76,15.15,0,30.3-.06,45.45.06,4.29,0,8.56.65,12.85.9a39.455,39.455,0,0,0,4.47-.21c-1-4.39-4.83-1.64-6.6-3.34-.27-1.43-.54-2.83-.8-4.18h-95.22Zm-49.39,29.41a1.335,1.335,0,0,1,.07-.52H677.66v.52ZM1110,638.91c-2.82-3.71-4.83-6.73-8.73-6.63s-6.37,2.83-8.36,6.63Zm-60.24-168.5-4.78,3.51.42.82h4.36ZM929.68,539.87c4.54-1.78,4.63-1.94,3-4.83Zm9.82-10.58c1.86.54,3.8,1.47,5-1.31Zm-2.5,8.78,3.17-2.94C937.56,534.93,936.38,535.39,937,538.07Z" transform="translate(-644.83 -354.87)" fill="#393a38"/>
    <path id="Path_172" data-name="Path 172" d="M47.892,201.61v21.745l11.481,4.2,1.4,118.171-11.761,5.04-3.92,24.922,33.6,3.64,23.242-1.96,4.2-7.561V350.766l-12.881-5.04V228.955l11.2-5.6,1.68-16.521-1.68-7Z" fill="#fff"/>
    <path id="Path_173" data-name="Path 173" d="M47.892,201.61v21.745l11.481,4.2,1.4,118.171-11.761,5.04-3.92,24.922,33.6,3.64,23.242-1.96,4.2-7.561V350.766l-12.881-5.04V228.955l11.2-5.6,1.68-16.521-1.68-7Z" transform="translate(95 -2)" fill="#fff"/>
    <path id="Path_174" data-name="Path 174" d="M243.149,200.162,241.5,224.839l12.741,7.281V346.062l18.566,4,7.281-4s-1.092-114.306,0-117.219,0-19.658,0-19.658v-4.732l-11.649-4.291Z" fill="#fff"/>
    <path id="Path_2" data-name="Path 2" d="M665.53,510c1.53-.37,2.88-1,4.61,0s4,1.42,6,2.08l.07,33.87c-.22.6-.77,1.59-.61,1.73,1.2,1,2.6,1.75,3.84,2.71,3.49,2.71,3.47,2.73,6.55.65h89l2-1h0l1-1,4-1.07h11l1-.78h3.07l8,.82c1.65,2.86,4.16,4,7.4,4q24.105,0,48.22-.06c1.41,0,3.37-.15,4.14-1,2.11-2.42,4.69-1.82,7.23-1.93,4.33.49,8.67-1.5,13,0h26l1-.94h2c.21.24.39.68.63.71,7.24,1,5.87,2.13,7.41,8.27l-2,.87-29.11.33c-1,6.46,0,12.43,0,18.93H920c0,1.44.68,2.16,2.11,1.73,2-.6,1.83-2.3,1.92-3.93.1-1.91-.27-3.2-2.55-2.95l-.32-13L922,557c3.43-.18,4.49,3.53,7.27,4.42l1.78.59c.52,8.9-1.37,17.83.26,26.72a6.748,6.748,0,0,1-.48,2.34c-1.33,1.43-1.53,2.76.31,3.94l.13,19c-3.36.9-2.22,3.68-2.22,5.76q-.07,75.81,0,151.61c0,1.33,0,2.66.06,4,.1,1.71,1.38,1.54,2.55,1.48,2,3.74,3.06,8.16,7.59,10,.16.57.31,1.13.46,1.7-2.34.69-5.37,0-6.22,2.63l1.38,5.22a26,26,0,0,1-4.56-2.49,22,22,0,0,1-4-4.42,28.779,28.779,0,0,1-5.2-16.21c-.07-3.16,1.3-6.59-1.13-9.49,0-1.54-.9-1.83-2.21-1.8h-8.75c.7-2.63,2.76-3.9,5-5,.54,2.94,1.91,4,3.75,2.48,1.38-1.11,2.18-2.94,3.24-4.44v-2.13a1.31,1.31,0,0,1,.32-.88c1.3,0,2.52.11,2.83-1.81.46-2.82,1.27-5.58,2-8.52-1.91-.88-2.73-3.54-5.42-2.54L919,739c-.39-.64-.68-1.73-1.19-1.84a18.715,18.715,0,0,0-4-.13H668.14a18.784,18.784,0,0,0-4,.14c-.5.11-.78,1.22-1.16,1.88-.17,4.38-.37,8.76-.43,13.14,0,.39.93.8,1.43,1.2.33.48.67.95,1,1.43l1-1.44,5-.53a3.086,3.086,0,0,1,0,.61V755c-3.39,0-5.1,2-6,5h-2.92c-1.43-.08-2.12.54-2.07,2L656,763.13c-3.27,0-3.8-2.57-3.85-4.76-.22-8.15-.17-16.32-.06-24.48,0-3,1.59-4.49,4.58-4.92a34,34,0,0,1,5-.19h24.48c0-6.43.09-12.39,0-18.35a11.05,11.05,0,0,1,2.52-7.36c1.8-2.25,3.94-4,7.07-4,1.72,0,3.38-.1,4-2.14,2.14-.29,1.35-2,1.36-3.12V591.74a6.2,6.2,0,0,0-.1-2.45c-.28-.58-1.19-.86-1.82-1.26-4.77.12-8.83-1.14-11.2-5.72a14.754,14.754,0,0,0,.89-3.7c-.06-2.27-.63-4.52-.72-6.78-.13-3.48-.06-7,0-10.44,0-1.3-.17-2.33-1.77-2.36l-.26-1-.51-1.54L685,557.7l-16.07-.53c.19-1.69-.61-2.32-2.23-2-.48-2.18-1.36-4.36-1.37-6.54C665.29,535.72,665.44,522.85,665.53,510Zm81.31,75.87,2,.42-2.94,1.46c-3.54-1.12-3.72-1-4.89,2.22a21.1,21.1,0,0,0-1,4.52q-.09,48.22,0,96.43a12.119,12.119,0,0,0,.11,3.47c.22.68,1.28,1.1,2,1.63l2.78,2.74c1.15,2.08,3,.93,4.56.94,4.85,1.71,6.2,5.69,6.36,10.23.17,4.81,0,9.63.07,14.44a38.554,38.554,0,0,0,.43,3.84h25.85c0-6.69-.1-12.65,0-18.6s3-9.28,8.87-10.51c1.62,1.19,3.17,2,4.07-.75l.66-1.35c.75-.44,2-.75,2.14-1.34a15.342,15.342,0,0,0,.11-4V614.99c1.55-1.33,1.54-2.66,0-4h-1c0-2.13.11-4.27,0-6.4s-.53-4.36-.81-6.54v-7.1c.87-1.93,3.09-3.9.28-5.7l-4.12,2.15-2.42.05c.29-1.35,1.22-3,.72-4-1.43-2.75.09-4.51,1.4-6.47l1.56-.21c10.82.12,21.64.38,32.45.31,5.12,0,10.23-.71,15.34-1.09.52-.32,1.48-.63,1.48-1q.12-7.6-.05-15.21c0-.3-1-.57-1.55-.86a27.586,27.586,0,0,0-4.68-.9c-5.61-.11-11.21,0-16.82-.05-7.57-.07-15.15-.22-22.72-.34-.38-3.1-.67-3.26-3-1.7l-9,1c-2.06-2.56-2.06-2.56-4,.84l-24.12-.05-1.59-.36c-.44,2.05-1,4.08-1.24,6.15-.05.41,1,.95,1.55,1.43l.21,6c-1.11.62-1.12,1.26,0,1.9a48,48,0,0,1-.74,7.23c-.77,3.14-2.58,5.59-6.13,6.13-.2-.68-.39-1.36-.59-2l-1.38.67ZM921,586l-.7-.41.7.41v1.93l-17.14.28c0,4.14.09,7.61,0,11.06-.1,3-.43,5.9-.67,8.85-.39.57-1.09,1.12-1.13,1.71-.15,2-.08,4.12-.09,6.18-.64.54-1.76,1-1.85,1.63A38.25,38.25,0,0,0,900,623c0,1.41-.37,3.11,2,3v67.32c0,1.24-1,3.17,1.39,3.58l.48,1.34c.63.58,1.24,1.66,1.88,1.67,4.91.14,9.83.11,14.74,0,.5,0,1-.65,1.49-1a27.1,27.1,0,0,0,1-5q.09-46,0-91.92c1.52-1.32,1.54-2.64,0-4a37.3,37.3,0,0,0-.09-4.85c-.1-.79-.84-1.49-1.29-2.22,0-.61,0-1.22.05-1.82.4-.72.8-1.44,1.21-2.16ZM849.93,703.66c-1.26,1.41,0,1.82.94,2.35l.78,2.11c-.36,7-.75,14-1,21,0,.64.83,1.31,1.23,1.89,7.75,0,15.25.07,22.74,0a18.212,18.212,0,0,0,5.28-1.05c1.42-.46,1.55-1.56.54-2.7-.17-6.67-.65-13.35-.34-20a7,7,0,0,1,4.65-6.43c.26,1,.52,2.06,1,3.87l2.41-3.18-3.35-.74,4.27-1.54c2.74,1.36,3.14,1.22,3.89-1.3a1,1,0,0,1,.14-.89c3.07-.31,1.85-2.7,1.85-4.21q.1-38.29,0-76.59a9.32,9.32,0,0,0-.11-3c-.19-.55-1.17-.83-1.8-1.23l.12-3,2.79-.3V594.94l-1,.06-2-1c-.16-1.92-.32-3.84-.49-5.84-3.95-.06-7.29-.75-9.71-3.69.25-1.32.17-2.44-1.58-2.48l-.49-1.36c-.26-.88-.53-1.76-.79-2.64-.06-2.25-1.1-4.65,1-6.57.25-1.6.45-3.21.76-4.79S881,565.1,880,565c-.05-1.17-.09-2.34-.14-3.52-.55-2.47,1.57-3.4,2.8-5.28l-31.67,1c.25,1.33.46,2.49.67,3.64-.06,1.1-.13,2.21-.19,3.31l-.55,5.8c-.63.54-1.6,1-1.8,1.65A12.439,12.439,0,0,0,849,575a29.85,29.85,0,0,1-1,3.53,19.6,19.6,0,0,1-2.34,4.61c-2.42,3.08-5.66,3.46-9,1.92-2.47,4.15-2.19,7.16,1.07,13.42l-1.55,2.43c.92,1.08,1.75,2,2.58,3,0,1.06.08,2.11.11,3.17-.59,1.19-1.53,2.33-1.71,3.58a46.615,46.615,0,0,0-.1,6.26v77.87c0,1.15-.76,2.81,1.32,3.18l.14-.28-.5,4.18c2.89-1.22,4.95-1.09,7.06.89.71.67,2.77,2.18,4.4.43A.47.47,0,0,0,849.93,703.66ZM805,698c.36.61.68,1.73,1.1,1.76,2.53.23,5.09.23,7.64.28l16.51.29-2.3-2.31V598.08c2.22-3,1-6.32.62-9.52,0-.21-1.12-.3-1.71-.45a.58.58,0,0,1-.8-.29c-.15-.88-.3-1.77-.59-3.53-1.93,1.8-5.47-1.25-5.44,3.37l-13.05.21c-1.95-1.67-1.75.08-1.94,1.22a10.57,10.57,0,0,0-1,3q-.07,51.42,0,102.85A10.758,10.758,0,0,0,805,698Zm86,30.12c.57.64,1,1.67,1.74,1.86,7.47,2,15.11.71,22.68,1,1.75.07,1.54-1.35,1.63-2.48l4.31-.77V713l1.64-1.4-2-1.6c-1.13-.55-2.25-1.56-3.39-1.58-8.62-.13-17.25-.07-26-.07-.38,1.77-.7,3.2-1,4.63-1.4,0-2.65.06-2.61,2q.12,5,0,10c-.05,2,1.2,2.06,2.61,2Zm-58.87.28,8.83-.4c.49-.05,1.28.08,1.41-.16a16.72,16.72,0,0,0,.91-14c-.27-.75-1.25-1.25-1.9-1.86-.3-2.35-2-2.21-3.74-2.22-13.78-.07-27.56-.19-41.35-.16-1.1,0-2.2,1-3.3,1.46-.63.39-1.8.77-1.81,1.18-.13,4.78-.15,9.56,0,14.34,0,.49,1.32.93,2,1.4a1.909,1.909,0,0,1,.74.4c.63.57,1.27,1.65,1.91,1.65q17.14.16,34.31,0c.65-.03,1.3-1.11,1.96-1.67Zm-135-18.87V728h47.62V710.51c0-.43-.49-.85-.76-1.27.25-2.79-1.79-2.23-3.35-2.23h-39.9c-.83,0-1.88-.24-2.43.17s-.84,1.51-1.2,2.31ZM744,577.06l1.45.66-.54-1.75c-.08-5.89-.16-11.79-.24-17.59H697.11v18.68ZM731.9,698c.69-.51,1.81-.91,2-1.55a16,16,0,0,0,.12-4v-104l-2.1.59c-7.13-2.28-14.32-.5-21.54-.95V698.7c4.79,0,9.24.09,13.7,0C726.67,698.6,729.28,698.22,731.9,698Zm150.37,28.48h.46v-4.91h-.46Zm26.05-141.2.33.75c.7-.29,1.41-.57,2.09-.9a7.16,7.16,0,0,0-.32-.78Zm14.56,176.07-.32-.93a7.078,7.078,0,0,0-1,.81c-.07.07.17.42.26.65ZM809.54,585.43a3.888,3.888,0,0,0-.74-.28c-.08,0-.2.16-.31.25.16.15.32.44.47.43S809.35,585.58,809.54,585.43Zm73.75,120,.27.18v-.29Z" transform="translate(-644.83 -354.87)" fill="#b55151"/>
    <path id="Path_3" data-name="Path 3" d="M934.83,796.4l-1.38-5.22c.85-2.59,3.88-1.94,6.22-2.63l3.33.05,2.09,1.06c1.18,2.64,3.51,1.27,5.22,1.27q146.65.12,293.31.07a31.19,31.19,0,0,0,4-.08c.49-.06.89-.76,1.33-1.17,4.45-.87,9.06-1.2,13.06-3.65.13.9.25,1.81.45,3.26l4.34-3.28L1273,788c-4.41,7.75-11.56,11-20,11.94a24.834,24.834,0,0,1-3,0q-150.62,0-301.24-.08c-4,0-8.1-1.19-12.13-2C936,797.78,935.43,796.92,934.83,796.4Z" transform="translate(-644.83 -354.87)" fill="#333839"/>
    <path id="Path_4" data-name="Path 4" d="M909,762h8.75c1.31,0,2.24.26,2.21,1.8-1.66,0-3.32.11-5,.11H661.75a48.205,48.205,0,0,1-5.82-.73L660,762Z" transform="translate(-644.83 -354.87)" fill="#191919"/>
    <path id="Path_5" data-name="Path 5" d="M1167,444.94c-1.28,2.06-3.31,1-5,1.05q-42.85.11-85.71.05c-7.48,0-14.95,0-22.43-.05a17.081,17.081,0,0,1-4-1.05,25.909,25.909,0,0,1,3.37-.44h110.31a25.831,25.831,0,0,1,3.46.44Z" transform="translate(-644.83 -354.87)" fill="#191919"/>
    <path id="Path_6" data-name="Path 6" d="M1275.89,619c0-21.47,0-42.93.14-64.4a24.633,24.633,0,0,1,.9-4.57c0,7,.13,14,.13,21v200c0,1.67-.09,3.33-.14,5l-1,.06V677.37Q1276,648.16,1275.89,619Z" transform="translate(-644.83 -354.87)" fill="#0a0a09"/>
    <path id="Path_7" data-name="Path 7" d="M699.07,588c.63.4,1.54.68,1.82,1.26a6.2,6.2,0,0,1,.1,2.45V693.78c0,1.15.78,2.83-1.36,3.12-.08-1.82-.24-3.64-.24-5.47v-98C699.35,591.64,699.17,589.81,699.07,588Z" transform="translate(-644.83 -354.87)" fill="#0a0a09"/>
    <path id="Path_8" data-name="Path 8" d="M1275.93,776l1-.06c.51,4.6-1.47,8.39-3.93,12l-6.22-1.92-4.34,3.28c-.2-1.45-.32-2.36-.45-3.26l1.27-2.1c3.26-.68,3.86-1.66,3-4.93q.33-3,.65-6.11L1269,775l3.8,5.42C1274.13,778.56,1275,777.3,1275.93,776Z" transform="translate(-644.83 -354.87)" fill="#393a38"/>
    <path id="Path_9" data-name="Path 9" d="M686.25,559c1.6,0,1.78,1.06,1.77,2.36,0,3.48-.11,7,0,10.44.09,2.26.66,4.51.72,6.78a14.756,14.756,0,0,1-.89,3.7c-.59-1.64-1.64-3.27-1.69-4.92C686,571.23,686.2,565.11,686.25,559Z" transform="translate(-644.83 -354.87)" fill="#3e3e3b"/>
    <path id="Path_10" data-name="Path 10" d="M1034,444.94c-1.35,1.62-2.71,1.61-4.06,0Z" transform="translate(-644.83 -354.87)" fill="#191919"/>
    <path id="Path_11" data-name="Path 11" d="M666.7,555.12c1.62-.27,2.42.36,2.23,2Z" transform="translate(-644.83 -354.87)" fill="#393a38"/>
    <path id="Path_12" data-name="Path 12" d="M685,557.7l.48-1.22L686,558Z" transform="translate(-644.83 -354.87)" fill="#393a38"/>
    <path id="Path_13" data-name="Path 13" d="M1170.93,445.27l-.91-.2a.74.74,0,0,1,.91.2Z" transform="translate(-644.83 -354.87)" fill="#191919"/>
    <path id="Path_14" data-name="Path 14" d="M1263.27,784l-1.27,2.1c-4,2.45-8.61,2.78-13.06,3.65H949.08c-1.33,0-2.66-.09-4-.14L943,788.6l3.07-2.87c-.2-.53-.27-1.48-.67-1.66-3.66-1.6-3.43-4.69-3.43-7.91Q942,701,942,625.73v-5.12h-1V780a27.367,27.367,0,0,1-1,5c-.07-1-.21-2-.21-3q0-83.7.05-167.42c0-6.16.56-12.4-.23-18.46-.93-7.23.69-14.18.89-21.26.8.86,1.56,1.76,2.41,2.56s2,1.73,3,2.59l1.06,1.81,7.32,9.21.6.53L956,592l1,1.05c3.7,4.46,7.06,9.25,11.19,13.27s9,7.23,13.53,10.77a159.492,159.492,0,0,0,33.66,19.68c8.52,3.74,17.39,7.2,26.88,8.33,2.71.32,5.31,1.54,8,2.31a13.151,13.151,0,0,0,2.41.46c3.94.41,7.87.78,12.33,1.22.08,2.91.22,5.67.21,8.44a44.072,44.072,0,0,0,4.53,20c4.24,8.62,11.16,13.71,19.56,17.28,9.54,4,18.73,2.48,27.57-2.28,4.9-2.63,5.16-4.72,1.43-9.15a4.22,4.22,0,0,1-.47-1.39l5-6.25c4.38,6.45,9.46,4.39,11.6-1.7,1.44-4.08,2.84-8.07,2.58-12.53-.23-4,0-8,0-12.13a18.511,18.511,0,0,1,3.89-1.33c8.75-.83,17.13-3.07,25.54-5.61A157.683,157.683,0,0,0,1194.75,631c8-4.27,15.83-8.93,22.79-14.9,3.74-3.21,7.92-5.91,11.74-9,2.14-1.75,3.73-4.22,6-5.79,5.13-3.63,8.59-8.74,12.26-13.55,5.34-7,10-14.53,15-21.83,1.16-1.71,1.68-4.16,4.54-3.87-.75,3.67-1.7,7.34,0,11v81a28.361,28.361,0,0,0,0,15v33a6.923,6.923,0,0,0-.76,2.18q-.08,13.85,0,27.68a6.923,6.923,0,0,0,.76,2.18v38.94q-.32,3.06-.65,6.11ZM1246,631.81c-2.92-.82-3.76-.27-4.82,3.2-.08,1.65-.24,3.31-.24,5v68.93c0,3-.39,5.91-.68,8.86-.33,3.49,1.78,6.75,4.71,7.13,3.94.51,5.62-.83,6.1-4.89a2.511,2.511,0,0,0,.15-.94,8.057,8.057,0,0,0,.68-2.25q.06-39.8,0-79.58c0-1.82-1.14-3.66-1.92-5.41-.1-.22-1.28,0-2,.07Zm-60.63,146.41c3,.54,6,1.5,9,1.55,12,.18,24-.16,35.93.19a25,25,0,0,0,14.1-3.84,14.16,14.16,0,0,0,7.33-12.14c.27-7.31.12-14.64,0-22,0-3.61-2.5-6.07-5.75-6-3.68.06-5,1.53-5.1,5.74-.07,6,0,12-.06,18-.08,5.69-2.86,8.42-8.58,8.43-13,0-25.95.15-38.93,0-8.49-.15-8.97,2.15-7.9,10.07Z" transform="translate(-644.83 -354.87)" fill="#428fc5"/>
    <path id="Path_15" data-name="Path 15" d="M670.88,498.15l-6.34-.7c.29-4.54.57-9.08.9-14.29,3-1.57,6.7-3.38,10.27-5.33,7.51-4.11,15-8.28,22.45-12.44,4.89-2.72,9.92-5.1,14.69-8.13,6.91-4.38,14.63-7.46,21.9-11.3,6.08-3.21,12-6.78,18-10.07,7.64-4.16,15.37-8.17,23-12.32,3.88-2.11,7.63-4.46,11.53-6.55,7.17-3.86,14.43-7.53,21.59-11.41,5.21-2.82,10.27-5.91,15.47-8.75Q843,386.74,861.7,376.79a4.29,4.29,0,0,1,3.54-.07c9,5.21,18,10.46,27.1,15.63,8.69,4.95,17.22,10.17,26.1,14.83,7.83,4.12,15.27,9,22.92,13.43,10.47,6.1,21,12.11,31.45,18.19,7.37,4.29,14.66,8.7,22.06,12.92,4.82,2.74,9.77,5.24,14.66,7.84-2,8.85-1.11,17.83-1.26,26.77-.07,3.47,0,6.95,0,11-2.06.2-3.79.52-5.52.52H679.54c-1.82,0-3.64.19-5.46.29Z" transform="translate(-644.83 -354.87)" fill="#f9d639"/>
    <path id="Path_16" data-name="Path 16" d="M797.05,547.23h-3.07l-1-.05h-4l-7,.22c-2.47-.11-4.94-.3-7.41-.3H692.48c-1.82,0-3.63-.17-5.45-.25l3-3.2c-3.05-7.47-2.73-15.41-3.16-23.35l-2.63-.27c1-3.4,3.83-2,5.87-2q155.76-.1,311.54,0c2.16,0,4.32.11,6.48.17v7.92H946.7c-5.39,0-10.54.92-14.7,4.78l-1.71,1.1-1.3,1.25c-.37.54-.75,1.07-1.13,1.61h0l-1.07,1L923,542c-.1.06-.28.12-.29.19a2.738,2.738,0,0,0,.06.56c-.26.73-.52,1.46-.79,2.19l-.9,2-.1.08a.85.85,0,0,0-.92.2l-6,.1c-6.46-.11-12.92-.3-19.38-.31H808.52C804.67,547.07,800.86,547.17,797.05,547.23Z" transform="translate(-644.83 -354.87)" fill="#f8d43d"/>
    <path id="Path_17" data-name="Path 17" d="M960,581.94,946.71,563c-.86-1.44-1.71-2.89-2.56-4.33L940,551c-.31-.68-.61-1.36-.92-2l-3.2-7.8,8.15-4.42c.49,0,1,.13,1.48.13h203q43.25,0,86.49-.14c.1,4.27-1.62,7.47-5.54,9.36a9.578,9.578,0,0,0-1.93-.39q-32.31.06-64.61.16c-.49,0-1-.1-1.49-.1l-113.76.22c-2.27,0-4.53,0-6.8.08l-17.92.21H951.83c-1,0-2,.7-3.26,1.15.84,1.81,1.53,3.27,2.21,4.73L952,554l1.87,3.37a.61.61,0,0,0,.18.63l4.8,7.42c4.35,8.3,10.68,15,17.47,21.28.84.78,2.18,1.22,2.67,2.15,2.77,5.25,7.48,8,12.64,10.28l1.27,1h0l7.13,5,.25.11.27-.05,2.35,1h0c4.94,3.69,9.81,7.51,16,9l-.05.09c9.26,5.15,19.44,7.9,29.51,10.7,11.51,3.2,23.42,4.57,35.28,6-.91,2.3-1.81,4.61-2.94,7.52-6.79-.62-13.52-1.27-20.26-1.8-2.07-.17-4.16,0-6.24,0a6.167,6.167,0,0,1-1.89-.38c-12.25-4.32-25-7.26-36.75-13-15.94-7.74-30.62-17.15-43-30-3.22-3.33-6.85-6.27-10.29-9.39Z" transform="translate(-644.83 -354.87)" fill="#f0f3f5"/>
    <path id="Path_18" data-name="Path 18" d="M1009.53,459.56c-4.89-2.6-9.84-5.1-14.66-7.84-7.4-4.22-14.69-8.63-22.06-12.92-10.47-6.08-21-12.09-31.45-18.19-7.65-4.46-15.09-9.31-22.92-13.43-8.88-4.66-17.41-9.88-26.1-14.83-9.06-5.17-18.07-10.42-27.1-15.63a4.29,4.29,0,0,0-3.54.07q-18.7,9.91-37.34,20.07c-5.2,2.84-10.26,5.93-15.47,8.75-7.16,3.88-14.42,7.55-21.59,11.41-3.9,2.09-7.65,4.44-11.53,6.55-7.65,4.15-15.38,8.16-23,12.32-6,3.29-11.92,6.86-18,10.07-7.27,3.84-15,6.92-21.9,11.3-4.77,3-9.8,5.41-14.69,8.13-7.47,4.16-14.94,8.33-22.45,12.44-3.57,1.95-7.22,3.76-10.27,5.33-.33,5.21-.61,9.75-.9,14.29h-8.8V481.68c0-2.09,1.54-2.78,3-3.58q10.935-6,21.89-12,33.87-18.64,67.74-37.3,37.62-20.65,75.27-41.25c12.1-6.64,24.23-13.24,36.25-20.05a6.47,6.47,0,0,1,7.3,0c14.3,8.13,28.71,16.09,43.08,24.11L961.7,420.3q25.92,14.47,51.84,28.95a12.8,12.8,0,0,1,1.65,1.38Z" transform="translate(-644.83 -354.87)" fill="#f6f5ef"/>
    <path id="Path_19" data-name="Path 19" d="M1008.06,518.13c-2.16-.06-4.32-.17-6.48-.17H690.04c-2,0-4.87-1.41-5.87,2q-.15,13.43-.29,26.84l.09.41c-2.55-.62-5.49,1-7.75-1.34q0-16.93-.07-33.87l1-3.08h330.51C1008.83,511.92,1008.3,515,1008.06,518.13Z" transform="translate(-644.83 -354.87)" fill="#f9f8ec"/>
    <path id="Path_20" data-name="Path 20" d="M1229.18,549.06c-1.63,3-3.24,6-4.88,9.05-.4.71-1,1.33-1.34,2.06-1.49,3-1.11,5.77.94,7.14,2.36,1.58,6.92,1.05,8.48-1.39,3.43-5.39,6.58-10.95,9.87-16.43.91-1.52,1.88-3,2.82-4.48l4.79.44c-1,2.38-1.51,4.1-2.35,5.65a154.073,154.073,0,0,1-31.78,40.9,142,142,0,0,1-31.43,21.61,161.321,161.321,0,0,1-43.57,14.56c-2.4.44-4.81,2.4-7.26-.32-.48-.53-3-.21-3.59.51-3,4-7.2,2.42-11,2.8-3.61-2.66-6.05-6.8-10.55-8.36-.29-.09-.34-.85-.5-1.31-.31-.72-.61-1.45-.92-2.18-.31.61-.62,1.22-.94,1.83l-5-.24c.33-1.62.67-3.24,1-4.86h0a8.274,8.274,0,0,0,2.49,0c3.55-1.18,6.34-.28,8.67,2.62a3.77,3.77,0,0,0,2.51,1.35c7.39.09,14.89.61,21.45-3.94a20.673,20.673,0,0,1,3.54-1.8,5.131,5.131,0,0,1,1.64-.11c.67,1.18,1.38,2.44,2.44,4.34a32.155,32.155,0,0,1,2.3-3.91,11.065,11.065,0,0,1,2.1-1.5c1.64,6.29,1.8,6.46,7.94,5.94a16,16,0,0,0,4.8-1.1c6.82-2.83,13.69-5.6,20.37-8.76,13.3-6.29,24.47-15.63,35.33-25.35,1.21-1.08,1.94-2.67,3.05-3.87,3.39-3.66.5-8.44-4.39-8.67-1.69-.09-3.72,1.25-5.16,2.46-3.93,3.3-7.72,6.77-11.39,10.36-5.51,5.39-12.22,9-18.69,13-.33-1.59-.66-3.17-1-4.76-1-4.6-2.06-9.11-7.7-10.34-.88-.19-1.58-1.21-3.07-2.42,2.47-.66,4-1.17,5.56-1.47,4.17-.77,8.4-1.28,12.54-2.22,4.71-1.08,8-9.72,3.61-14.43-3.41-3.68-7.34-3.73-11.81-3-3.26.54-6.43,2.63-9.93,1.1-.42-3.62-.81-7-1.2-10.45Z" transform="translate(-644.83 -354.87)" fill="#468ec3"/>
    <path id="Path_21" data-name="Path 21" d="M1118.9,631.12c3.78-.38,8,1.23,11-2.8.54-.72,3.11-1,3.59-.51,2.45,2.72,4.86.76,7.26.32a161.316,161.316,0,0,0,43.57-14.56A142,142,0,0,0,1215.73,592a154.072,154.072,0,0,0,31.78-40.86c.84-1.55,1.37-3.27,2.35-5.65l-4.79-.44,3-7.68c5.66-.81,10.3.09,13.94,4.16-22.52,57.37-81.48,96.44-140.34,97.27C1120.77,636.33,1119.83,633.73,1118.9,631.12Z" transform="translate(-644.83 -354.87)" fill="#f0f3f5"/>
    <path id="Path_22" data-name="Path 22" d="M1034,454.82c1.16.08,2.31.24,3.46.24h123.08c1.15,0,2.3-.16,3.46-.25a23,23,0,0,1,11.3,4.5l.77,2.57h-.19L1174,462c-.33,0-.66-.1-1-.1q-67.05-.36-134.1-.69a22.53,22.53,0,0,0-4.9.63c-4,.89-5.74,2.82-6,6.75-.37,6.79-.72,13.57-.84,20.36-.22,12.3-.26,24.61-.38,36.91a1.2,1.2,0,0,0-.82.42h-6.22a26.774,26.774,0,0,1-.51-3.57q0-26.175-.08-52.36c0-5.91,1.86-10.69,6.92-14l3-1.14,1.93-.28Z" transform="translate(-644.83 -354.87)" fill="#e8eced"/>
    <path id="Path_23" data-name="Path 23" d="M1275.93,776c-.9,1.26-1.8,2.52-3.13,4.4L1269,775a26.536,26.536,0,0,0,1-5.06q.07-75,0-150l5.88-1q0,29.16.09,58.32Q1276,726.69,1275.93,776Z" transform="translate(-644.83 -354.87)" fill="#333839"/>
    <path id="Path_24" data-name="Path 24" d="M1008,500c0,1.77-.81,2.85-2.62,3a13,13,0,0,1-3,0c-7.54-1.15-15.07.13-22.6,0-1.78,0-3.55-.55-5.34-.72a13,13,0,0,0-4.44-.09c-5.08,1.37-10,1-15.15,0a22.239,22.239,0,0,0-8.94,0,25.519,25.519,0,0,1-12.67,0,10.49,10.49,0,0,0-5-.09,34.519,34.519,0,0,1-16.63,0,9.65,9.65,0,0,0-4.47,0,35.92,35.92,0,0,1-15.65.07c-3.14-.58-6.55.36-9.84.42-3.6.06-7.21-.06-10.82-.18-1.8-.05-3.72-.72-5.39-.31-5.42,1.35-10.69,1-16.15.05-3.15-.55-6.53.44-9.82.52-3.45.1-6.91-.07-10.37-.11H809.01c-2.3,0-4.7-.8-6.87-.34a34.93,34.93,0,0,1-16.14,0,7.539,7.539,0,0,0-3.47-.07,38.33,38.33,0,0,1-18.13,0,7.541,7.541,0,0,0-3.47.06,36.34,36.34,0,0,1-17.13,0,8.551,8.551,0,0,0-4,0,31.849,31.849,0,0,1-14.66.09,24.67,24.67,0,0,0-9.42,0c-4.31.89-8.42,1.19-12.67-.09a13.841,13.841,0,0,0-4-.15H681.57c-1.43,0-2.74,0-2.68-2h9.49Z" transform="translate(-644.83 -354.87)" fill="#353348"/>
    <path id="Path_25" data-name="Path 25" d="M1026.83,525.83c.12-12.3.16-24.61.38-36.91.12-6.79.47-13.57.84-20.36.21-3.93,2-5.86,6-6.75a22.53,22.53,0,0,1,4.9-.63q67,.31,134.1.69c.33,0,.66.07,1,.1a21.583,21.583,0,0,1-4.53,1c-14.48.08-29,.06-43.43.06h-86.86c-1.64,0-3.49-.57-5.94,1.48,5,.58,8.94,1.43,12.89,1.44,35.11.1,70.22.05,105.33.05H1155c2,0,3.09,1,3,3.07a56.427,56.427,0,0,0-7.78-1.09q-47.91-.11-95.83,0a88.549,88.549,0,0,0-11.83,1c-2.59.36-4.81,1.53-4.9,4.7-4.36,1.49-4.6,5.29-4.64,8.9-.11,12.61,0,25.22,0,37.82v5.38Z" transform="translate(-644.83 -354.87)" fill="#4d8dbb"/>
    <path id="Path_26" data-name="Path 26" d="M1165.24,477.86a4.29,4.29,0,0,0-2-3.62c-1.36-1-2.11-2.87-3.13-4.35l3.62-.46c.25-1.27.57-2.8.9-4.41,4.2.39,8.34-1.31,12.69,2.6-.66-2.72-1-4.23-1.39-5.74h.19c.6.46,1.6.84,1.73,1.41a22.061,22.061,0,0,1,.3,4.46q0,26.22,0,52.43a12.462,12.462,0,0,1-.16,3.47c-.25.84-1.08,2-1.75,2.11-3.34.37-6.84,1.71-10-.83q0-21.2-.16-42.38a27.6,27.6,0,0,0-.84-4.69Z" transform="translate(-644.83 -354.87)" fill="#4d8dbb"/>
    <path id="Path_27" data-name="Path 27" d="M1083.6,632c-11.86-1.43-23.77-2.8-35.28-6-10.07-2.8-20.25-5.55-29.51-10.7l4.54-.45a6.419,6.419,0,0,1,.64-1.21c1.62-2,3.32-5,5.89-4.32a17.159,17.159,0,0,1,10.55,7.43l-5.27,2c2,2.56,3.4,2.94,5.63,1.7.8-.45,1.67-1.38,2.38-1.27,4.33.69,8.79,1.16,12.9,2.58,4.73,1.63,9.44,1.24,14.19,1.24a3.07,3.07,0,0,0,2.39-1.37c1.08-2.95,3.76-3.47,6.15-4.43,2.73-1.1,5.49-2.13,8.26-3.14,4.34-1.6,8.64-2.91,13.36-1.08,1.84.72,1.47,1.87,1.58,3.1h0c-3.09.34-4.22,2.2-4,5.13C1092,623.06,1087.7,627.39,1083.6,632Z" transform="translate(-644.83 -354.87)" fill="#468ec3"/>
    <path id="Path_28" data-name="Path 28" d="M1056.65,477.41l1.66-7.19h95.22c.26,1.35.53,2.75.8,4.18,1.77,1.7,5.61-1,6.6,3.34a39.455,39.455,0,0,1-4.47.21c-4.29-.25-8.56-.87-12.85-.9-15.15-.12-30.3,0-45.45-.06-1.74,0-3.5.43-4.68-1.76-1-2-3.41-1.72-4.94-.91C1078.62,479.57,1068,475.69,1056.65,477.41Z" transform="translate(-644.83 -354.87)" fill="#303638"/>
    <path id="Path_29" data-name="Path 29" d="M1235,536.71l-86.49.14h-203c-.49,0-1-.09-1.48-.13.43-.58.79-1.56,1.32-1.67a21.114,21.114,0,0,1,4-.09q140.37,0,280.75.11C1231.72,535.1,1234.32,533.46,1235,536.71Z" transform="translate(-644.83 -354.87)" fill="#0a0a09"/>
    <path id="Path_30" data-name="Path 30" d="M1270,620V770a26.537,26.537,0,0,1-1,5.06l-2.09-2.06V734.06c.35-.66,1-1.32,1-2q.1-14,0-28.08c0-.66-.66-1.32-1-2v-33c1.89-4.87,1.18-9.82.41-14.76,0-.11-.27-.18-.42-.26v-81h1.06c2.36,0,2,1.69,2,3.15v21.93Q1269.96,608.97,1270,620Z" transform="translate(-644.83 -354.87)" fill="#392c23"/>
    <path id="Path_31" data-name="Path 31" d="M1175.88,461.88c.37,1.51.73,3,1.39,5.74-4.35-3.91-8.49-2.21-12.69-2.6-.33,1.61-.65,3.14-.9,4.41l-3.62.46-2.1-.81c.07-2.08-1-3.06-3-3.07h-3.49c-35.11,0-70.22.05-105.33-.05-3.95,0-7.91-.86-12.89-1.44,2.45-2.05,4.3-1.48,5.94-1.48q43.44-.06,86.86,0c14.48,0,29,0,43.43-.06a21.583,21.583,0,0,0,4.53-1Z" transform="translate(-644.83 -354.87)" fill="#3390d0"/>
    <path id="Path_32" data-name="Path 32" d="M1008,500H665.56v-.52l5.31-1.37h3.23a32.442,32.442,0,0,0,5.12.81q88.66.06,177.34,0h146.37A27.3,27.3,0,0,1,1008,500Z" transform="translate(-644.83 -354.87)" fill="#211f1f"/>
    <path id="Path_33" data-name="Path 33" d="M1007.26,506.82H677.67v-.52h329.67C1007.31,506.47,1007.28,506.65,1007.26,506.82Z" transform="translate(-644.83 -354.87)" fill="#191919"/>
    <path id="Path_34" data-name="Path 34" d="M1026.83,525.83H1033v-5.38c0-12.6-.09-25.21,0-37.82,0-3.61.28-7.41,4.64-8.9l2.64,1.49c-.61,6-1.21,11.71-1.89,18.31l-2.16-3.28c-1.48.32-1.76,10.75-.67,17.62l2.73-1.71c1.53,2.59.53,6.86,5.13,6.84v3c-4,1.15-5.65,3.4-5,6.84s-.47,4.77-3.73,5.19c-2.33.3-4.62.85-7.69,1.44-.21-.7-.6-2-1-3.22A1.2,1.2,0,0,1,1026.83,525.83Z" transform="translate(-644.83 -354.87)" fill="#303638"/>
    <path id="Path_35" data-name="Path 35" d="M1229.18,549.06,1168,549c-1.52-1.31-4.37-.5-5-3.17q32.31-.09,64.61-.16a9.582,9.582,0,0,1,1.93.39C1229.39,547.07,1229.28,548.06,1229.18,549.06Z" transform="translate(-644.83 -354.87)" fill="#3390d0"/>
    <path id="Path_36" data-name="Path 36" d="M797.05,547.23c3.81-.06,7.62-.16,11.42-.16h86.16c6.46,0,12.92.2,19.38.31a4.889,4.889,0,0,1,0,.66h-2l-1,.94H897a17.67,17.67,0,0,0-12,0c-4.33-1.51-8.67.48-13,0a14.569,14.569,0,0,0-3.56-1H805.01Z" transform="translate(-644.83 -354.87)" fill="#3e3e3b"/>
    <path id="Path_37" data-name="Path 37" d="M1165.24,477.86a27.593,27.593,0,0,1,.83,4.7c.1,14.12.12,28.25.16,42.38-2.18-.44-2.24-2.07-2.24-3.82q0-20.175.06-40.34C1164.06,479.8,1164.83,478.83,1165.24,477.86Z" transform="translate(-644.83 -354.87)" fill="#303638"/>
    <path id="Path_38" data-name="Path 38" d="M1110,638.91h-17.1c2-3.8,4.35-6.52,8.36-6.63S1107.17,635.2,1110,638.91Z" transform="translate(-644.83 -354.87)" fill="#e8eced"/>
    <path id="Path_39" data-name="Path 39" d="M1117,650h-29c0-1.44.65-2,2.11-2h24.75C1116.31,648,1117,648.53,1117,650Z" transform="translate(-644.83 -354.87)" fill="#211f1f"/>
    <path id="Path_40" data-name="Path 40" d="M1175.3,459.32a23,23,0,0,0-11.3-4.5c.6-.6,1.11-1.57,1.81-1.73a41.591,41.591,0,0,1,5.28-.6l5.75,6.08Z" transform="translate(-644.83 -354.87)" fill="#3e3e3b"/>
    <path id="Path_41" data-name="Path 41" d="M1268,573h-1.06c-1.65-3.67-.7-7.34,0-11a32.629,32.629,0,0,1,1,4.53C1268.13,568.67,1268,570.83,1268,573Z" transform="translate(-644.83 -354.87)" fill="#333839"/>
    <path id="Path_42" data-name="Path 42" d="M1049.75,470.41v4.33h-4.36l-.42-.82Z" transform="translate(-644.83 -354.87)" fill="#303638"/>
    <path id="Path_43" data-name="Path 43" d="M1098,621.13c-.26-2.93.87-4.79,4-5.13-.33,1.62-.67,3.24-1,4.86Z" transform="translate(-644.83 -354.87)" fill="#4194c5"/>
    <path id="Path_44" data-name="Path 44" d="M929.68,539.87l3-4.83C934.31,537.93,934.22,538.09,929.68,539.87Z" transform="translate(-644.83 -354.87)" fill="#3e3e3b"/>
    <path id="Path_45" data-name="Path 45" d="M944.15,558.68c.85,1.44,1.7,2.89,2.56,4.33l-4-.21Z" transform="translate(-644.83 -354.87)" fill="#3e3e3b"/>
    <path id="Path_46" data-name="Path 46" d="M1029.07,455.18l-3,1.14v-4.05l1.07-.16Z" transform="translate(-644.83 -354.87)" fill="#3e3e3b"/>
    <path id="Path_47" data-name="Path 47" d="M939.5,529.29l5-1.31C943.3,530.76,941.36,529.83,939.5,529.29Z" transform="translate(-644.83 -354.87)" fill="#3e3e3b"/>
    <path id="Path_48" data-name="Path 48" d="M939.12,549c.31.67.61,1.35.92,2l-3.8.83C936.25,549.49,937.49,549,939.12,549Z" transform="translate(-644.83 -354.87)" fill="#3e3e3b"/>
    <path id="Path_49" data-name="Path 49" d="M937,538.07c-.65-2.68.53-3.14,3.17-2.94Z" transform="translate(-644.83 -354.87)" fill="#3e3e3b"/>
    <path id="Path_50" data-name="Path 50" d="M960,581.94l2.18,3-3.21-.18C959.42,583.63,959.73,582.79,960,581.94Z" transform="translate(-644.83 -354.87)" fill="#3e3e3b"/>
    <path id="Path_51" data-name="Path 51" d="M1034,454.82l-3,.08,1.71-1.84Z" transform="translate(-644.83 -354.87)" fill="#3e3e3b"/>
    <path id="Path_52" data-name="Path 52" d="M1106,621.1c.32-.61.63-1.22.94-1.83.31.73.61,1.46.92,2.18Z" transform="translate(-644.83 -354.87)" fill="#4194c5"/>
    <path id="Path_53" data-name="Path 53" d="M947,581.83,946,580Z" transform="translate(-644.83 -354.87)" fill="#3e3e3b"/>
    <path id="Path_54" data-name="Path 54" d="M921.08,547l.9-2Z" transform="translate(-644.83 -354.87)" fill="#3e3e3b"/>
    <path id="Path_55" data-name="Path 55" d="M927.86,534.86c.38-.54.76-1.07,1.13-1.61C928.62,533.79,928.24,534.32,927.86,534.86Z" transform="translate(-644.83 -354.87)" fill="#3e3e3b"/>
    <path id="Path_56" data-name="Path 56" d="M930.29,532l1.64-1.13Z" transform="translate(-644.83 -354.87)" fill="#3e3e3b"/>
    <path id="Path_57" data-name="Path 57" d="M957,593.07,956,592Z" transform="translate(-644.83 -354.87)" fill="#3e3e3b"/>
    <path id="Path_58" data-name="Path 58" d="M954.93,591.57l-.6-.53a.84.84,0,0,1,.6.53Z" transform="translate(-644.83 -354.87)" fill="#3e3e3b"/>
    <path id="Path_59" data-name="Path 59" d="M926.79,535.87l1.07-1Z" transform="translate(-644.83 -354.87)" fill="#3e3e3b"/>
    <path id="Path_60" data-name="Path 60" d="M920.06,547.26a.85.85,0,0,1,.92-.2Z" transform="translate(-644.83 -354.87)" fill="#3e3e3b"/>
    <path id="Path_61" data-name="Path 61" d="M922.77,542.78a2.738,2.738,0,0,1-.06-.56c0-.07.19-.13.29-.19a1.349,1.349,0,0,1-.23.75Z" transform="translate(-644.83 -354.87)" fill="#3e3e3b"/>
    <path id="Path_62" data-name="Path 62" d="M671,752.82l-5,.53h-2c-.5-.4-1.44-.81-1.43-1.2.06-4.38.26-8.76.43-13.14,2.16.07,4.31.2,6.47.2H910.54c2.82,0,5.63-.16,8.45-.24l1.66.17.06,8.72c-.33,0-.67.08-1,.08h-245c-1.13,0-2.25.15-3.73.26Z" transform="translate(-644.83 -354.87)" fill="#f2efe3"/>
    <path id="Path_63" data-name="Path 63" d="M671,752.82v-4.63c1.48-.11,2.6-.26,3.73-.26h245c.33,0,.67-.05,1-.08.18,1.39.37,2.77.56,4.15a1.31,1.31,0,0,0-.32.88l-4.85.45c-1.66-.08-3.32-.22-5-.22H677c-2,0-4,.21-6,.31a3.08,3.08,0,0,0,0-.6Z" transform="translate(-644.83 -354.87)" fill="#eed441"/>
    <path id="Path_64" data-name="Path 64" d="M909,762h-5c-.56-.65-1-1.71-1.7-1.87a16.918,16.918,0,0,0-4-.11H680.92c-1.84,0-3.46-.08-5-1.49-2.44-2.19-4.06-2.28-6.46.09-1.48,1.47-2.86,1.27-4.44,1.39h0c.89-3,2.6-5,6-5H913.05l1,2C911.76,758.08,909.7,759.35,909,762Z" transform="translate(-644.83 -354.87)" fill="#343137"/>
    <path id="Path_65" data-name="Path 65" d="M890.59,713c.31-1.43.63-2.86,1-4.63,8.77,0,17.4-.06,26,.07,1.14,0,2.26,1,3.39,1.58.11,1,.21,2,.32,3v14.71l-4.31.77c-1.63-.1-3.25-.28-4.88-.29-7.06-.07-14.11-.08-21.17-.12-.13-.35-.25-.71-.38-1.06Z" transform="translate(-644.83 -354.87)" fill="#f0f3f5"/>
    <path id="Path_66" data-name="Path 66" d="M919,739c-2.82.08-5.63.24-8.45.24H669.48c-2.16,0-4.31-.13-6.47-.2.38-.66.66-1.77,1.16-1.88a18.776,18.776,0,0,1,4-.14H913.83a18.711,18.711,0,0,1,4,.13C918.31,737.24,918.6,738.33,919,739Z" transform="translate(-644.83 -354.87)" fill="#211f1f"/>
    <path id="Path_67" data-name="Path 67" d="M913,755.05H734.35L671,755v-1.56c2-.1,4-.31,6-.31H911.12c1.66,0,3.32.14,5,.22L921,754v1Z" transform="translate(-644.83 -354.87)" fill="#211f1f"/>
    <path id="Path_68" data-name="Path 68" d="M931.27,614.06c.09,3.33.24,6.65.24,10V771.94c0,1.66.07,3.33.1,5-1.17.06-2.45.23-2.55-1.48-.08-1.33-.06-2.66-.06-4V619.85C929.05,617.74,927.91,615,931.27,614.06Z" transform="translate(-644.83 -354.87)" fill="#191919"/>
    <path id="Path_69" data-name="Path 69" d="M742.25,608.21c.1,1.82.3,3.64.3,5.45v67.91c0,4.82-.3,9.63-.46,14.44-.68-.53-1.74-1-2-1.63a12.119,12.119,0,0,1-.11-3.47V594.48a21.1,21.1,0,0,1,1-4.52c0,4.95-.07,9.9.06,14.84A12.12,12.12,0,0,0,742.25,608.21Z" transform="translate(-644.83 -354.87)" fill="#211f1f"/>
    <path id="Path_70" data-name="Path 70" d="M795.75,697c-.13-1.64-.38-3.27-.38-4.91V623.96c0-4.29.29-8.59.45-12.89H798v80.67a15.338,15.338,0,0,1-.11,4C797.73,696.21,796.5,696.52,795.75,697Z" transform="translate(-644.83 -354.87)" fill="#211f1f"/>
    <path id="Path_71" data-name="Path 71" d="M805,548.05h63.43a14.572,14.572,0,0,1,3.56,1c-2.54.11-5.12-.49-7.23,1.93-.77.89-2.73,1-4.14,1-16.07.06-32.15,0-48.22.06C809.17,552,806.66,550.91,805,548.05Z" transform="translate(-644.83 -354.87)" fill="#393a38"/>
    <path id="Path_72" data-name="Path 72" d="M731.9,698V589.06l2.1-.59v104a16,16,0,0,1-.12,4C733.71,697.06,732.59,697.46,731.9,698Z" transform="translate(-644.83 -354.87)" fill="#191919"/>
    <path id="Path_73" data-name="Path 73" d="M805.84,589c.07,9.46.19,18.91.2,28.37v80.65h-1a10.759,10.759,0,0,1-.94-3q-.09-51.42,0-102.85a10.569,10.569,0,0,1,1-3l.43.05Z" transform="translate(-644.83 -354.87)" fill="#0a0a09"/>
    <path id="Path_74" data-name="Path 74" d="M939.21,786.85,940,785a27.37,27.37,0,0,0,.94-5.07q.09-39.48,0-79V620.61h1V776.16c0,3.22-.23,6.31,3.43,7.91.4.18.47,1.13.67,1.66L943,788.6l-3.33-.05C939.52,788,939.37,787.42,939.21,786.85Z" transform="translate(-644.83 -354.87)" fill="#3390d0"/>
    <path id="Path_75" data-name="Path 75" d="M687,546.82c1.82.08,3.63.24,5.45.25h82.09c2.47,0,4.94.19,7.41.3a5.605,5.605,0,0,1,0,.58L778,549H685l-1-1.75-.09-.41Z" transform="translate(-644.83 -354.87)" fill="#392c23"/>
    <path id="Path_76" data-name="Path 76" d="M794,557.91,793,560c-1.91-.07-2,1.17-2,2.63,0,3.63.41,7.41-.46,10.84-.56,2.21,1,2.38,1.48,3.53-1.31,2-2.83,3.72-1.4,6.47.5.95-.43,2.63-.72,4-4-.93-6.1-3.54-6.65-7.52,2.39-1.08,2.4-3.6,2.42-5.43.08-5.83-.39-11.66-.64-17.5l9-1C794,556.64,794,557.27,794,557.91Z" transform="translate(-644.83 -354.87)" fill="#343137"/>
    <path id="Path_77" data-name="Path 77" d="M685,549.06h92v.93h0l-2,1H686Z" transform="translate(-644.83 -354.87)" fill="#353348"/>
    <path id="Path_78" data-name="Path 78" d="M903.18,608.12c.19,1.8.52,3.61.53,5.42v80.4c0,1-.18,2-.27,3-2.43-.41-1.38-2.34-1.39-3.58-.08-12.14,0-24.27,0-36.4V616.04c0-2.06-.06-4.13.09-6.18C902.09,609.24,902.79,608.69,903.18,608.12Z" transform="translate(-644.83 -354.87)" fill="#0a0a09"/>
    <path id="Path_79" data-name="Path 79" d="M893.09,697c-.06-5.8-.18-11.59-.17-17.39q0-33.79.16-67.59c.63.4,1.61.68,1.8,1.23a9.318,9.318,0,0,1,.11,3v76.59C894.94,694.29,896.16,696.68,893.09,697Z" transform="translate(-644.83 -354.87)" fill="#211f1f"/>
    <path id="Path_80" data-name="Path 80" d="M851.45,564.2c1.71,3.25.55,6.71.75,10.07a16.754,16.754,0,0,1-.37,3c-.84,6.67-3.52,9.61-10.13,11.1-.78.18-1.57.29-2.27.41v12.41a11.615,11.615,0,0,1-.71,2.75c-.83-.95-1.66-1.91-2.58-3l1.55-2.43c-3.26-6.26-3.54-9.27-1.07-13.42,3.39,1.54,6.63,1.16,9-1.92a19.6,19.6,0,0,0,2.34-4.61,29.839,29.839,0,0,0,1-3.53c1.43,0,2.09-.63,2-2.07-.06-1-.06-2-.09-2.93Z" transform="translate(-644.83 -354.87)" fill="#3e3e3b"/>
    <path id="Path_81" data-name="Path 81" d="M851.65,708.12a51.435,51.435,0,0,1,.61,5.23c.09,4.77,0,9.54,0,14.84,7.48,0,14.42.08,21.36-.05a54.187,54.187,0,0,0,6.78-.95c1,1.14.88,2.24-.54,2.7a18.208,18.208,0,0,1-5.28,1.05c-7.49.12-15,0-22.74,0-.4-.58-1.25-1.25-1.23-1.89C850.9,722.11,851.29,715.11,851.65,708.12Z" transform="translate(-644.83 -354.87)" fill="#3e3e3b"/>
    <path id="Path_82" data-name="Path 82" d="M921.56,697.47c0-20.93-.12-41.85-.12-62.78,0-11.62.14-23.24.22-34.87L923,600v93.92a27.1,27.1,0,0,1-1,5Z" transform="translate(-644.83 -354.87)" fill="#0a0a09"/>
    <path id="Path_83" data-name="Path 83" d="M743.93,709.24l-40.35.14c-2.16,0-4.31.08-6.47.11.36-.8.53-1.86,1.14-2.32s1.6-.17,2.43-.17h39.9C742.14,707,744.18,706.45,743.93,709.24Z" transform="translate(-644.83 -354.87)" fill="#211f1f"/>
    <path id="Path_84" data-name="Path 84" d="M838.32,617.05q.07,32.44.14,64.9c0,5.32-.09,10.64-.14,16-2.08-.37-1.31-2-1.32-3.18-.07-7,0-14,0-21V616.9Z" transform="translate(-644.83 -354.87)" fill="#0a0a09"/>
    <path id="Path_85" data-name="Path 85" d="M879.84,561.48c-1.3-2.5-3.37-3.08-6.11-3-5.79.15-11.59,0-17.37-.19-2.26-.09-3.77.6-4.72,2.61-.21-1.15-.42-2.31-.67-3.64l31.67-1C881.41,558.08,879.29,559,879.84,561.48Z" transform="translate(-644.83 -354.87)" fill="#3e3e3b"/>
    <path id="Path_86" data-name="Path 86" d="M785,557c.25,5.84.72,11.67.64,17.5,0,1.83,0,4.35-2.42,5.43a23.584,23.584,0,0,1-.86-4.17c-.11-4.45.06-8.91-.11-13.36a21.228,21.228,0,0,0-1.21-4.56C783,554.44,783,554.44,785,557Z" transform="translate(-644.83 -354.87)" fill="#3e3e3b"/>
    <path id="Path_87" data-name="Path 87" d="M793.91,728.3l38.19.06c-.66.56-1.31,1.59-2,1.59q-17.16.15-34.31,0C795.18,730,794.54,728.87,793.91,728.3Z" transform="translate(-644.83 -354.87)" fill="#686868"/>
    <path id="Path_88" data-name="Path 88" d="M891,728.08c7.06,0,14.11,0,21.17.12,1.63,0,3.25.19,4.88.29-.09,1.13.12,2.55-1.63,2.48-7.57-.32-15.21,1-22.68-1C892,729.75,891.54,728.72,891,728.08Z" transform="translate(-644.83 -354.87)" fill="#3e3e3b"/>
    <path id="Path_89" data-name="Path 89" d="M921.27,752c-.19-1.38-.38-2.76-.56-4.15l-.06-8.72c2.69-1,3.51,1.66,5.42,2.54-.7,2.94-1.51,5.7-2,8.52C923.79,752.12,922.57,752,921.27,752Z" transform="translate(-644.83 -354.87)" fill="#3e3e3b"/>
    <path id="Path_90" data-name="Path 90" d="M805,698h22.94l2.3,2.31L813.73,700a69.492,69.492,0,0,1-7.64-.28C805.67,699.69,805.35,698.57,805,698Z" transform="translate(-644.83 -354.87)" fill="#3e3e3b"/>
    <path id="Path_91" data-name="Path 91" d="M742.25,608.21a12.117,12.117,0,0,1-1.14-3.41c-.13-4.94-.06-9.89-.06-14.84,1.17-3.26,1.35-3.34,4.89-2.22l-2.77,1.47Z" transform="translate(-644.83 -354.87)" fill="#686868"/>
    <path id="Path_92" data-name="Path 92" d="M793,711l.21,16.92c-.7-.47-2-.91-2-1.4-.15-4.78-.13-9.56,0-14.34C791.16,711.75,792.33,711.37,793,711Z" transform="translate(-644.83 -354.87)" fill="#686868"/>
    <path id="Path_93" data-name="Path 93" d="M840.93,728l.42-16.06c.65.61,1.63,1.11,1.9,1.86a16.72,16.72,0,0,1-.91,14C842.21,728,841.42,727.91,840.93,728Z" transform="translate(-644.83 -354.87)" fill="#686868"/>
    <path id="Path_94" data-name="Path 94" d="M890.59,713v14c-1.41,0-2.66-.07-2.61-2q.12-5,0-10C887.94,713,889.19,713,890.59,713Z" transform="translate(-644.83 -354.87)" fill="#3e3e3b"/>
    <path id="Path_95" data-name="Path 95" d="M685,549.06l1,1.94c-3.08,2.08-3.06,2.06-6.55-.65-1.24-1-2.64-1.72-3.84-2.71-.16-.14.39-1.13.61-1.73,2.26,2.33,5.2.72,7.75,1.34Z" transform="translate(-644.83 -354.87)" fill="#393a38"/>
    <path id="Path_96" data-name="Path 96" d="M893.2,609q-.06-5.5-.1-11c2.33.07,1.84-1.63,1.9-3l1-.06v13.77Z" transform="translate(-644.83 -354.87)" fill="#3e3e3b"/>
    <path id="Path_97" data-name="Path 97" d="M838.46,697.63a7.73,7.73,0,0,0,2.27.74,9.71,9.71,0,0,1,8.69,4.76c-1.63,1.75-3.69.24-4.4-.43-2.11-2-4.17-2.11-7.06-.89Z" transform="translate(-644.83 -354.87)" fill="#3e3e3b"/>
    <path id="Path_98" data-name="Path 98" d="M921.56,697.47l.48,1.47c-.49.35-1,1-1.49,1-4.91.08-9.83.11-14.74,0-.64,0-1.25-1.09-1.88-1.67,4.62,0,9.24.17,13.85.11A17.69,17.69,0,0,0,921.56,697.47Z" transform="translate(-644.83 -354.87)" fill="#3e3e3b"/>
    <path id="Path_99" data-name="Path 99" d="M792,577c-.45-1.15-2-1.32-1.48-3.53.87-3.43.43-7.21.46-10.84,0-1.46.11-2.7,2-2.63q.27,8.4.56,16.79Z" transform="translate(-644.83 -354.87)" fill="#3e3e3b"/>
    <path id="Path_100" data-name="Path 100" d="M841.35,576l-.12-17c.54.29,1.54.56,1.55.86q.16,7.6.05,15.21C842.83,575.38,841.87,575.69,841.35,576Z" transform="translate(-644.83 -354.87)" fill="#3e3e3b"/>
    <path id="Path_101" data-name="Path 101" d="M913,755.05h8c-1.06,1.5-1.86,3.33-3.24,4.44-1.84,1.49-3.21.46-3.75-2.48Z" transform="translate(-644.83 -354.87)" fill="#3e3e3b"/>
    <path id="Path_102" data-name="Path 102" d="M797,611h-1.18q.18-6.48.35-13c.28,2.18.66,4.36.81,6.54S797,608.86,797,611Z" transform="translate(-644.83 -354.87)" fill="#3e3e3b"/>
    <path id="Path_103" data-name="Path 103" d="M920,577.13c.49-1.72,1-3.43,1.48-5.15,2.28-.25,2.65,1,2.55,2.95-.09,1.63.06,3.33-1.92,3.93C920.68,579.29,920,578.57,920,577.13Z" transform="translate(-644.83 -354.87)" fill="#3e3e3b"/>
    <path id="Path_104" data-name="Path 104" d="M838.32,617.05l-1.34-.14a46.614,46.614,0,0,1,.1-6.26c.18-1.25,1.12-2.39,1.71-3.58Q838.57,612.05,838.32,617.05Z" transform="translate(-644.83 -354.87)" fill="#3e3e3b"/>
    <path id="Path_105" data-name="Path 105" d="M827.9,598q-.54-5-1.09-10c.59.15,1.69.24,1.71.45C828.86,591.72,830.12,595,827.9,598Z" transform="translate(-644.83 -354.87)" fill="#3e3e3b"/>
    <path id="Path_106" data-name="Path 106" d="M796.14,591l-3.84-3.56,4.12-2.14C799.23,587.05,797,589,796.14,591Z" transform="translate(-644.83 -354.87)" fill="#3e3e3b"/>
    <path id="Path_107" data-name="Path 107" d="M826,587.78l-6-.16c0-4.62,3.51-1.57,5.44-3.37C825.71,586,825.86,586.9,826,587.78Z" transform="translate(-644.83 -354.87)" fill="#3e3e3b"/>
    <path id="Path_108" data-name="Path 108" d="M881,571.42c-.42-.34-1.21-.67-1.22-1,0-1.8.14-3.6.23-5.4,1,.1,2,.07,1.75,1.63S881.22,569.82,881,571.42Z" transform="translate(-644.83 -354.87)" fill="#3e3e3b"/>
    <path id="Path_109" data-name="Path 109" d="M756.93,557.79,755.65,565c-.54-.48-1.6-1-1.55-1.43.25-2.07.8-4.1,1.24-6.15Z" transform="translate(-644.83 -354.87)" fill="#3e3e3b"/>
    <path id="Path_110" data-name="Path 110" d="M902,616v7h-2a38.249,38.249,0,0,1,.11-5.36C900.2,617,901.32,616.55,902,616Z" transform="translate(-644.83 -354.87)" fill="#3e3e3b"/>
    <path id="Path_111" data-name="Path 111" d="M885,549a17.67,17.67,0,0,1,12,0Z" transform="translate(-644.83 -354.87)" fill="#393a38"/>
    <path id="Path_112" data-name="Path 112" d="M850.9,570c0,1,0,2,.09,2.93.1,1.44-.56,2.12-2,2.07a12.441,12.441,0,0,1,.1-3.35C849.3,571,850.27,570.54,850.9,570Z" transform="translate(-644.83 -354.87)" fill="#393a38"/>
    <path id="Path_113" data-name="Path 113" d="M665,762h-5c0-1.43.64-2.05,2.07-2h2.92C665,760.66,665,761.32,665,762Z" transform="translate(-644.83 -354.87)" fill="#3e3e3b"/>
    <path id="Path_114" data-name="Path 114" d="M794,557.91V556c2.34-1.56,2.63-1.4,3,1.7Z" transform="translate(-644.83 -354.87)" fill="#3e3e3b"/>
    <path id="Path_115" data-name="Path 115" d="M923,600l-1.35-.16v-8.87c.45.73,1.19,1.43,1.29,2.22A37.292,37.292,0,0,1,923,598C923,598.68,923,599.33,923,600Z" transform="translate(-644.83 -354.87)" fill="#393a38"/>
    <path id="Path_116" data-name="Path 116" d="M744.85,698.75c1.74-.75,3.32-.73,4.56.94C747.83,699.68,746,700.83,744.85,698.75Z" transform="translate(-644.83 -354.87)" fill="#686868"/>
    <path id="Path_117" data-name="Path 117" d="M884.79,700.72l3.35.74-2.41,3.18c-.47-1.81-.73-2.84-1-3.87l.23.17Z" transform="translate(-644.83 -354.87)" fill="#3e3e3b"/>
    <path id="Path_118" data-name="Path 118" d="M791,699.06l4.07-.75C794.19,701,792.64,700.25,791,699.06Z" transform="translate(-644.83 -354.87)" fill="#3e3e3b"/>
    <path id="Path_119" data-name="Path 119" d="M930.83,591.07c.1,1.31.2,2.63.31,3.94C929.3,593.83,929.5,592.5,930.83,591.07Z" transform="translate(-644.83 -354.87)" fill="#3e3e3b"/>
    <path id="Path_120" data-name="Path 120" d="M889.06,699.18l3.89-1.3C892.2,700.4,891.8,700.54,889.06,699.18Z" transform="translate(-644.83 -354.87)" fill="#3e3e3b"/>
    <path id="Path_121" data-name="Path 121" d="M895,595c-.06,1.37.43,3.07-1.9,3l-.06-4Z" transform="translate(-644.83 -354.87)" fill="#393a38"/>
    <path id="Path_122" data-name="Path 122" d="M782,548a5.606,5.606,0,0,0,0-.58l7-.22v.8Z" transform="translate(-644.83 -354.87)" fill="#3e3e3b"/>
    <path id="Path_123" data-name="Path 123" d="M882.27,726.45v-4.91h.46v4.91Z" transform="translate(-644.83 -354.87)" fill="#3e3e3b"/>
    <path id="Path_124" data-name="Path 124" d="M900,623h2v3C899.63,626.11,900,624.41,900,623Z" transform="translate(-644.83 -354.87)" fill="#393a38"/>
    <path id="Path_125" data-name="Path 125" d="M921.33,713c-.11-1-.21-2-.32-3l2,1.6Z" transform="translate(-644.83 -354.87)" fill="#3e3e3b"/>
    <path id="Path_126" data-name="Path 126" d="M921.69,589.13c-.23-.4-.45-.8-.67-1.2V586h0l1.9,1C922.49,587.69,922.09,588.41,921.69,589.13Z" transform="translate(-644.83 -354.87)" fill="#3e3e3b"/>
    <path id="Path_127" data-name="Path 127" d="M908.32,585.25l2.1-.93a7.174,7.174,0,0,1,.32.78c-.68.33-1.39.61-2.09.9Z" transform="translate(-644.83 -354.87)" fill="#3e3e3b"/>
    <path id="Path_128" data-name="Path 128" d="M849.93,703.66c.35.77,2.26.92.94,2.35C849.93,705.48,848.67,705.07,849.93,703.66Z" transform="translate(-644.83 -354.87)" fill="#3e3e3b"/>
    <path id="Path_129" data-name="Path 129" d="M921,754l-4.87-.68,4.85-.45C921,753.27,921,753.64,921,754Z" transform="translate(-644.83 -354.87)" fill="#3e3e3b"/>
    <path id="Path_130" data-name="Path 130" d="M749,586.31h-.1l-2-.42a1.939,1.939,0,0,0,.17-.92l1.38-.67A17.584,17.584,0,0,0,749,586.31Z" transform="translate(-644.83 -354.87)" fill="#3e3e3b"/>
    <path id="Path_131" data-name="Path 131" d="M805.84,589l-.42.12-.43-.05c.19-1.14,0-2.89,1.94-1.22Z" transform="translate(-644.83 -354.87)" fill="#3e3e3b"/>
    <path id="Path_132" data-name="Path 132" d="M664,753.36h2l-1,1.44C664.67,754.31,664.33,753.84,664,753.36Z" transform="translate(-644.83 -354.87)" fill="#3e3e3b"/>
    <path id="Path_133" data-name="Path 133" d="M789,548v-.83h4V548Z" transform="translate(-644.83 -354.87)" fill="#393a38"/>
    <path id="Path_134" data-name="Path 134" d="M755.86,571.05v1.9C754.74,572.31,754.75,571.67,755.86,571.05Z" transform="translate(-644.83 -354.87)" fill="#3e3e3b"/>
    <path id="Path_135" data-name="Path 135" d="M921.16,558.94,920,557.87l2-.87Z" transform="translate(-644.83 -354.87)" fill="#3e3e3b"/>
    <path id="Path_136" data-name="Path 136" d="M923,600v-2c1.55,1.32,1.53,2.64,0,4Z" transform="translate(-644.83 -354.87)" fill="#3e3e3b"/>
    <path id="Path_137" data-name="Path 137" d="M744,577.06c.3-.36.61-.72.91-1.09l.54,1.75Z" transform="translate(-644.83 -354.87)" fill="#3e3e3b"/>
    <path id="Path_138" data-name="Path 138" d="M798,615v-4C799.56,612.33,799.57,613.66,798,615Z" transform="translate(-644.83 -354.87)" fill="#3e3e3b"/>
    <path id="Path_139" data-name="Path 139" d="M880.77,580.63c-.26-.88-.53-1.76-.79-2.64C880.24,578.87,880.51,579.75,880.77,580.63Z" transform="translate(-644.83 -354.87)" fill="#3e3e3b"/>
    <path id="Path_140" data-name="Path 140" d="M882.84,584.47c-.53-.83-1.06-1.65-1.58-2.48C883,582,883.09,583.15,882.84,584.47Z" transform="translate(-644.83 -354.87)" fill="#3e3e3b"/>
    <path id="Path_141" data-name="Path 141" d="M922.88,761.32l-1.06.53c-.09-.23-.33-.58-.26-.65a7.078,7.078,0,0,1,1-.81Z" transform="translate(-644.83 -354.87)" fill="#3e3e3b"/>
    <path id="Path_142" data-name="Path 142" d="M775,551l2-1Z" transform="translate(-644.83 -354.87)" fill="#393a38"/>
    <path id="Path_143" data-name="Path 143" d="M809.54,585.43c-.19.15-.38.38-.58.4s-.31-.28-.47-.43c.11-.09.23-.27.31-.25a3.889,3.889,0,0,1,.74.28Z" transform="translate(-644.83 -354.87)" fill="#3e3e3b"/>
    <path id="Path_144" data-name="Path 144" d="M747,584.94a1.941,1.941,0,0,1-.17.92Z" transform="translate(-644.83 -354.87)" fill="#686868"/>
    <path id="Path_145" data-name="Path 145" d="M898,549Z" transform="translate(-644.83 -354.87)" fill="#393a38"/>
    <path id="Path_146" data-name="Path 146" d="M777,550v-.93h1Z" transform="translate(-644.83 -354.87)" fill="#393a38"/>
    <path id="Path_147" data-name="Path 147" d="M911,549l1-.94Z" transform="translate(-644.83 -354.87)" fill="#393a38"/>
    <path id="Path_148" data-name="Path 148" d="M238.46,350.6l.3-.11-.03.29Z" fill="#3e3e3b"/>
    <path id="Path_149" data-name="Path 149" d="M921,586l-.7-.41Z" transform="translate(-644.83 -354.87)" fill="#3e3e3b"/>
    <path id="Path_150" data-name="Path 150" d="M793,548v-.83l1,.05Z" transform="translate(-644.83 -354.87)" fill="#3e3e3b"/>
    <path id="Path_151" data-name="Path 151" d="M945.09,789.66c1.33.05,2.66.14,4,.14h299.86c-.44.41-.84,1.11-1.33,1.17a31.2,31.2,0,0,1-4,.08q-146.65,0-293.31-.07C948.6,790.93,946.27,792.3,945.09,789.66Z" transform="translate(-644.83 -354.87)" fill="#303638"/>
    <path id="Path_152" data-name="Path 152" d="M665,762v-2c1.58-.12,3,.08,4.44-1.39,2.4-2.37,4-2.28,6.46-.09,1.57,1.41,3.19,1.49,5,1.49H898.33a16.918,16.918,0,0,1,4,.11c.68.16,1.14,1.22,1.7,1.87Z" transform="translate(-644.83 -354.87)" fill="#383838"/>
    <path id="Path_153" data-name="Path 153" d="M1263.27,784l3-4.93C1267.13,782.34,1266.53,783.32,1263.27,784Z" transform="translate(-644.83 -354.87)" fill="#333839"/>
    <path id="Path_154" data-name="Path 154" d="M1185.41,778.22c-1.07-7.92-.59-10.21,8-10.1,13,.17,26,.06,38.93,0,5.72,0,8.5-2.74,8.58-8.43.09-6,0-12,.06-18,0-4.21,1.42-5.68,5.1-5.74a5.7,5.7,0,0,1,5.75,6c.08,7.31.23,14.64,0,22a14.161,14.161,0,0,1-7.33,12.14,25,25,0,0,1-14.1,3.84c-12-.35-24,0-35.93-.19C1191.43,779.72,1188.41,778.76,1185.41,778.22Z" transform="translate(-644.83 -354.87)" fill="#303638"/>
    <path id="Path_155" data-name="Path 155" d="M1251.07,720c-.48,4.06-2.16,5.4-6.1,4.89-2.93-.38-5-3.64-4.71-7.13.29-2.95.68-5.91.68-8.86.06-23,0-46,0-68.93,0-1.66.16-3.32.24-5l3.76-2c2.58,7.21,3.15,14.65,3.08,22.27-.18,19.89-.06,39.79-.06,59.68v4.85Z" transform="translate(-644.83 -354.87)" fill="#383838"/>
    <path id="Path_156" data-name="Path 156" d="M1251.07,720l-3.07-.2V715c0-19.89-.12-39.79.06-59.68.07-7.62-.5-15.06-3.08-22.27l1.06-1.2,1.94.09c3,5.94,2,12.34,2,18.6.07,21.22,0,42.44.08,63.65,0,1.65-1,3.71,1.15,4.92A2.511,2.511,0,0,1,1251.07,720Z" transform="translate(-644.83 -354.87)" fill="#392c23"/>
    <path id="Path_157" data-name="Path 157" d="M1251.22,719.07c-2.15-1.21-1.15-3.27-1.15-4.92-.08-21.21,0-42.43-.08-63.65,0-6.26,1-12.66-2-18.6.68,0,1.86-.29,2-.07.78,1.75,1.91,3.59,1.92,5.41q.17,39.78,0,79.58a8.063,8.063,0,0,1-.69,2.25Z" transform="translate(-644.83 -354.87)" fill="#353348"/>
    <path id="Path_158" data-name="Path 158" d="M1266.94,702c.35.66,1,1.32,1,2q.1,14,0,28.08c0,.66-.66,1.32-1,2a6.922,6.922,0,0,1-.76-2.18q-.08-13.83,0-27.68A6.919,6.919,0,0,1,1266.94,702Z" transform="translate(-644.83 -354.87)" fill="#333839"/>
    <path id="Path_159" data-name="Path 159" d="M1267,654c.15.08.4.15.42.26.77,4.94,1.48,9.89-.41,14.76A28.36,28.36,0,0,1,1267,654Z" transform="translate(-644.83 -354.87)" fill="#333839"/>
    <path id="Path_160" data-name="Path 160" d="M1246,631.81l-1,1.19-3.76,2C1242.28,631.54,1243.12,631,1246,631.81Z" transform="translate(-644.83 -354.87)" fill="#353348"/>
    <path id="Path_161" data-name="Path 161" d="M687,546.82h-3.13q.15-13.41.29-26.84l2.63.27c.43,7.94.11,15.88,3.16,23.35Z" transform="translate(-644.83 -354.87)" fill="#f9d639"/>
    <path id="Path_162" data-name="Path 162" d="M1163,545.84c.67,2.67,3.52,1.86,5,3.17.39,3.41.78,6.83,1.2,10.45,3.5,1.53,6.67-.56,9.93-1.1,4.47-.73,8.4-.68,11.81,3,4.34,4.71,1.1,13.35-3.61,14.43-4.14.94-8.37,1.45-12.54,2.22-1.56.3-3.09.81-5.56,1.47,1.49,1.21,2.19,2.23,3.07,2.42,5.64,1.23,6.7,5.74,7.7,10.34.34,1.59.67,3.17,1,4.76l-4,2a12.338,12.338,0,0,0-3.34.1c-.68.2-1.11,1.17-1.66,1.8-5,2.24-10,4.89-15.17,6.59-3.34,1.1-5.87,2.62-7.68,5.52a11.076,11.076,0,0,0-2.1,1.5,32.134,32.134,0,0,0-2.3,3.91c-1.06-1.9-1.77-3.16-2.44-4.34a5.131,5.131,0,0,0-1.64.11,20.663,20.663,0,0,0-3.54,1.8c-6.56,4.55-14.06,4-21.45,3.94a3.77,3.77,0,0,1-2.51-1.35c-2.33-2.9-5.12-3.8-8.67-2.62a8.274,8.274,0,0,1-2.49,0c-.11-1.23.26-2.38-1.58-3.1-4.72-1.83-9-.52-13.36,1.08-2.77,1-5.53,2-8.26,3.14-2.39,1-5.07,1.48-6.15,4.43a3.07,3.07,0,0,1-2.39,1.37c-4.75,0-9.46.39-14.19-1.24-4.11-1.42-8.57-1.89-12.9-2.58-.71-.11-1.58.82-2.38,1.27-2.23,1.24-3.58.86-5.63-1.7l5.27-2a17.161,17.161,0,0,0-10.55-7.43c-2.57-.67-4.27,2.35-5.89,4.32a6.417,6.417,0,0,0-.64,1.21l-4.54.45.05-.09c0-1.22.61-2.43-1.25-3.2-3.89-1.6-7.6-3.61-11.45-5.3a12.158,12.158,0,0,0-3.29-.49h0l-2.35-1-.27.05-.25-.11c-.78-4-3.53-5.07-7.13-5h0l-1.27-1c-5.16-2.27-9.87-5-12.64-10.28-.49-.93-1.83-1.37-2.67-2.15-6.79-6.3-13.12-13-17.47-21.28-.61-3.11-.87-6.45-4.8-7.42a.61.61,0,0,1-.18-.63c.07-1.5.77-3.37-1.87-3.37l-1.17-1.92,3.35-2.5c3.05.54,5.52,1.27,8,1.36,5.32.19,10.65,0,16,.08,1.92,0,3.88.66,5.75.46,6.1-.65,12.15-1.25,18.09,1a6.191,6.191,0,0,0,2.87.42c4-.55,8.06-1.47,12.12-1.8a6.12,6.12,0,0,0,6-4.83l17.92-.21c2.27,0,4.53-.08,6.8-.08l113.76-.22C1162,545.74,1162.47,545.81,1163,545.84Z" transform="translate(-644.83 -354.87)" fill="#4194c5"/>
    <path id="Path_163" data-name="Path 163" d="M1023,546.25a6.12,6.12,0,0,1-6,4.83c-4.06.33-8.07,1.25-12.12,1.8a6.191,6.191,0,0,1-2.87-.42c-5.94-2.23-12-1.63-18.09-1-1.87.2-3.83-.43-5.75-.46-5.32-.07-10.65.11-16-.08a60.907,60.907,0,0,1-8-1.36l-3.35,2.5c-.68-1.46-1.37-2.92-2.21-4.73,1.24-.45,2.25-1.15,3.26-1.15Q987.44,546.16,1023,546.25Z" transform="translate(-644.83 -354.87)" fill="#4d8dbb"/>
    <path id="Path_164" data-name="Path 164" d="M1002.87,606.17a12.16,12.16,0,0,1,3.29.49c3.85,1.69,7.56,3.7,11.45,5.3,1.86.77,1.26,2,1.25,3.2C1012.68,613.68,1007.81,609.86,1002.87,606.17Z" transform="translate(-644.83 -354.87)" fill="#468ec3"/>
    <path id="Path_165" data-name="Path 165" d="M992.88,600.15c3.6-.12,6.35,1,7.13,5Z" transform="translate(-644.83 -354.87)" fill="#468ec3"/>
    <path id="Path_166" data-name="Path 166" d="M954,558c3.93,1,4.19,4.31,4.8,7.42Z" transform="translate(-644.83 -354.87)" fill="#4d8dbb"/>
    <path id="Path_167" data-name="Path 167" d="M952,554c2.64,0,1.94,1.87,1.87,3.37Z" transform="translate(-644.83 -354.87)" fill="#4d8dbb"/>
    <path id="Path_168" data-name="Path 168" d="M1000.53,605.16l2.35,1Z" transform="translate(-644.83 -354.87)" fill="#468ec3"/>
    <path id="Path_169" data-name="Path 169" d="M991.62,599.13l1.27,1Z" transform="translate(-644.83 -354.87)" fill="#468ec3"/>
    <path id="Path_170" data-name="Path 170" d="M1149.14,613c1.81-2.9,4.34-4.42,7.68-5.52,5.22-1.7,10.13-4.35,15.17-6.59a4.69,4.69,0,0,0,5-1.9l4-2c6.47-4,13.18-7.59,18.69-13,3.67-3.59,7.46-7.06,11.39-10.36,1.44-1.21,3.47-2.55,5.16-2.46,4.89.23,7.78,5,4.39,8.67-1.11,1.2-1.84,2.79-3.05,3.87-10.86,9.72-22,19.06-35.33,25.35-6.68,3.16-13.55,5.93-20.37,8.76a16,16,0,0,1-4.8,1.1C1150.94,619.47,1150.78,619.3,1149.14,613Z" transform="translate(-644.83 -354.87)" fill="#333839"/>
    <path id="Path_171" data-name="Path 171" d="M1177,599a4.69,4.69,0,0,1-5,1.9c.55-.63,1-1.6,1.66-1.8a12.34,12.34,0,0,1,3.34-.1Z" transform="translate(-644.83 -354.87)" fill="#468ec3"/>
  </g>
</svg>
