<svg xmlns="http://www.w3.org/2000/svg" enable-background="new 0 0 52 52" viewBox="0 0 52 52"><path fill="#FF5975" d="M43.56003,12.47715l-3.70607,36.16739c-0.08819,0.77211-0.72802,1.35667-1.50006,1.35667H13.65768
			c-0.77218,0-1.41187-0.58456-1.50007-1.35667L8.44037,12.47715H43.56003z"/><path d="M43.56003,12.47715l-3.70607,36.16739c-0.08819,0.77211-0.72802,1.35667-1.50006,1.35667H13.65768
			c-0.77218,0-1.41187-0.58456-1.50007-1.35667l-0.37512-3.67301h7.22471c9.36447,0,17.21783-7.08125,18.1664-16.40162
			l1.64346-16.09275H43.56003z" opacity=".05"/><path fill="#F2556F" d="M45.85423,8.94753v3.70607c0,0.82725-0.67295,1.50007-1.51124,1.50007H7.65715
			c-0.83829,0-1.51097-0.67282-1.51097-1.50007V8.94753c0-0.82725,0.67268-1.50007,1.51097-1.50007h36.68583
			C45.18127,7.44747,45.85423,8.12028,45.85423,8.94753z"/><path d="M45.85423,8.94753v3.70607c0,0.82725-0.67295,1.50007-1.51124,1.50007H7.65715
			c-0.83829,0-1.51097-0.67282-1.51097-1.50007v-1.30153H37.6147c2.42668,0,4.46707-1.6545,5.02961-3.9046h1.69867
			C45.18127,7.44747,45.85423,8.12028,45.85423,8.94753z" opacity=".05"/><path fill="#FFF" d="M17.36584 35.65232c-.16595.24459-.09171.46734-.03055.5809.05676.10919.20089.30136.49789.30136l5.51633 0-.00001 1.74705-5.51633 0c-1.85625 0-2.95686-2.08336-1.90864-3.61203l2.0266-2.96123-1.51993-.8779c-.31448-.17909-.27953-.64206.06113-.76871l3.49849-1.33212.80803-.31011c.2533-.10045.53284.06115.57216.33194l.73812 4.55105c.06112.35815-.3232.62022-.63769.44114l-2.00475-1.15743L17.36584 35.65232zM34.17252 38.28165h-4.83061l-.00001 2.0353c0 .36252-.41931.56344-.69884.33194l-2.90883-2.36724-.66389-.54158c-.21401-.17035-.21401-.49354 0-.66389l3.57273-2.91319c.27954-.2315.69884-.03057.69884.33194l-.00001 2.03967 4.83061 0c.29262 0 .43676-.18781.49355-.30137.06113-.11356.1354-.33632-.03495-.5809l-3.6688-5.35908 1.52868-.86041 3.58145 5.23677C37.12505 36.19828 36.02877 38.28165 34.17252 38.28165zM25.53338 23.71999l-2.72104 3.97455-1.42385-1.00892 2.70358-3.95272c.92157-1.33649 2.89138-1.33649 3.81294 0l1.18363 1.72959 2.16636-1.24913c.31446-.18343.69881.07861.63766.43676l-.63767 3.9789-.09173.57216c-.04367.27079-.3232.43239-.57653.33194l-4.31085-1.63786c-.33632-.12665-.37561-.58962-.06115-.77308l1.35399-.78179-1.10502-1.61603c-.14848-.21401-.35378-.24459-.46297-.24459C25.88716 23.47977 25.68189 23.51035 25.53338 23.71999z"/><path fill="#FF5975" d="M43.01957,4.03916v3.4083H8.98097v-3.4083c0-1.12502,0.9044-2.04053,2.04053-2.04053h29.95742
			C42.11503,1.99864,43.01957,2.91415,43.01957,4.03916z"/><g opacity=".05"><path d="M43.02022,4.04124v3.40997H8.9803v-2.5h27.79993c1.72009,0,3.15002-1.28998,3.35999-2.95001h0.84009
			C42.11019,2.00121,43.02022,2.91124,43.02022,4.04124z"/></g><path fill="#293C66" d="M44.34326,6.44753h-0.32324v-2.4082c0-1.67676-1.36426-3.04053-3.04102-3.04053H11.02197
		c-1.67676,0-3.04102,1.36377-3.04102,3.04053v2.4082H7.65674c-1.38477,0-2.51074,1.12158-2.51074,2.5v3.70605
		c0,1.37842,1.12598,2.5,2.51074,2.5h0.05273l3.45508,33.604c0.14551,1.27881,1.2168,2.24365,2.49316,2.24365H38.354
		c1.27637,0,2.34766-0.96484,2.49512-2.25488l3.44238-33.59277h0.05176c1.38477,0,2.51074-1.12158,2.51074-2.5V8.94753
		C46.854,7.56911,45.72803,6.44753,44.34326,6.44753z M9.98096,4.03932c0-0.57373,0.4668-1.04053,1.04102-1.04053H40.979
		c0.57422,0,1.04102,0.4668,1.04102,1.04053v2.4082H9.98096V4.03932z M38.86084,48.53102
		c-0.03125,0.26807-0.24902,0.47021-0.50684,0.47021H13.65771c-0.2627,0-0.47559-0.19775-0.50488-0.45898L9.7207,15.15358h32.5603
		L38.86084,48.53102z M44.854,12.65358c0,0.27588-0.22949,0.5-0.51074,0.5H7.65674c-0.28125,0-0.51074-0.22412-0.51074-0.5V8.94753
		c0-0.27588,0.22949-0.5,0.51074-0.5c21.64979,0,14.99017,0,36.68652,0c0.28125,0,0.51074,0.22412,0.51074,0.5V12.65358z"/></svg>