<svg xmlns="http://www.w3.org/2000/svg" width="482.282" height="371.315" viewBox="0 0 482.282 371.315">
  <g id="Screenshot_199_" data-name="Screenshot (199)" transform="translate(-439.015 -197.89)">
    <path id="Path_2" data-name="Path 2" d="M961.57,444.56c17.68,4.94,35.48,9.49,53,14.94a40.39,40.39,0,0,1,27.34,47.07c-.69,3.26.11,5,3.23,6.57a39.54,39.54,0,0,1,21.26,41.55,40.22,40.22,0,0,1-33.79,34c-16.6,2.69-33.64-5.53-41.45-20.37-1.74-3.31-3.75-4.43-7.38-4.29-8.64.35-17.31.2-25.95.54a5.79,5.79,0,0,0-4.1,2.5C939.8,591.51,912,596.51,890.17,578.4a9.119,9.119,0,0,0-1.53-.88c-26.2,52-66.94,78.07-124.85,63.18-51.61-13.26-75.91-51.27-78.2-103.92l-28,7.59v42c0,3.2.86,7.79-3.8,7.69-4.25-.08-3.4-4.53-3.41-7.59v-42.5c-22.22-2.7-40.52-11.42-52.93-30.31,1.75-3.11,2.43-5.87-1.78-7.75-1.71-.76-3.12-2.2-4.67-3.33-.21-.76-.43-1.51-.65-2.27-.48-3.4-1.63-6.89-1.26-10.2.43-3.91,2.18-7.68,3.35-11.51l5,19.42c7.23,20.54,33.29,39.23,52.22,37.18.08-1.57.22-3.2.22-4.83,0-11.82.22-23.65-.11-35.46a12.65,12.65,0,0,0-3.19-7.74c-10.71-11.17-21.75-22-32.66-33-2.12-2.14-4.9-4.47-1.72-7.51s5.41,0,7.5,2.06c4.27,4.2,8.47,8.47,12.66,12.76,5.4,5.53,10.75,11.1,16.82,17.37a20.108,20.108,0,0,0,.78-3.16c0-12-.09-23.93,0-35.89,0-15,.21-29.94.32-44.91v43.66h1.41c0-15,0-30.07-.06-45.11,0-.31-1-.62-1.56-.94l-36.19-37.11c-2.17-2.23-4.56-4.76-1.57-7.63s5.41,0,7.49,2.09c3.07,3,5.94,6.27,9,9.31,6.77,6.73,13.61,13.38,21.15,20.77V319.06a46.035,46.035,0,0,1,.62-5.33V377.4c1.07-20.57,1.08-41.14,1-61.71,0-.73-.61-1.47-.93-2.2,1.5-.9,3-2.39,4.51-2.47.84,0,2.13,2.2,2.62,3.61s.17,3,.17,4.46V427.41l29.74-28.58,2.33-2.28a.46.46,0,0,0,.5-.51l1.3-1.33.8-.76,1.93-.64,2.14.13c5.36,4.48.31,7.11-1.81,10.27l-3.2,3.17-1.9,1.8-.16.06-.82.87L685.57,413l-1.77,1.69-.16.16-1.55,1.66a.45.45,0,0,0-.51.48l-5.15,5.2-.85.78-1.41,1.6-14.61,14.06c-.7,3-2,5.93-2,8.89,0,28.28.18,56.55.35,84.83a12,12,0,0,0,.49,2.38h0l9.5-1,.4.07.3-.27,2.19-.67-.09.08,3.48-1.17c4.92-1.32,10.3-1.91,12.51-7.66l1.14-5.4,1.74-7.1c.25-.66.51-1.33.77-2a13.819,13.819,0,0,0,.43-2.35l1-2.58.79-2.08.87-2q3.56-7,7.13-14.06l1.22-1.89,3.91-5.76c7.48-6.67,10.47-14.59,10.22-25-.72-31.24-.33-62.5-.4-93.76,0-5.64-.17-11.28-.26-16.93-.25-3.92,0-7.95-.83-11.74-5.44-24.47-19.85-41.29-44.18-48-24.52-6.74-45.66.16-62.82,18.91-8.34,9.12-12.47,20.28-14.9,32.18q-3-3.49-5.9-7c8.42-33.42,35.56-54.54,69.48-54,31.29.45,59.77,24.64,65.54,55.84a71.859,71.859,0,0,1,1.07,12.86q.15,57.45.09,114.89v4.25c24-19.12,50.27-27.19,80.82-24.12V363.55c.13-.08.38-.19.37-.24a4.492,4.492,0,0,0-.31-.71c1.95-9.07,8.34-14.44,17.46-14.46,20.1-.05,40.2,0,60.31,0h6.89c0-5.48.16-10.26,0-15-.64-16.41,11.82-33.23,32.26-35.4,4.43-.47,6,1.14,6,6.17,0,26.47.15,52.93-.06,79.4-.08,10.79,1.39,21.18,5.49,31.17-4.58-.13-2.53,4.64-4.67,6.32v-.08l-1.27-2-1.63-.26-.93.23c-6.58,2.76-13.15,5.54-19.75,8.27-2.53,1-5,1.33-6.24-1.83s1.19-4.52,3.57-5.51c4.29-1.79,8.63-3.47,13-5.17,8.31-3.27,8.31-3.26,6.32-12.15a14.319,14.319,0,0,1-.53-2.94c0-2.87-1.59-3.62-4.18-3.59-6.49.08-13,0-19.48,0-3,0-5.66-.54-5.6-4s2.94-3.45,5.55-3.45c6.32,0,12.65-.07,19,0,3.14.05,4.53-1,4.29-4.4a97.543,97.543,0,0,1,0-12c.19-3.34-.73-4.84-4.4-4.7-6.82.25-13.65-.12-20.47.17-4,.17-6.43-1-7.18-5,.14-.34.28-.7.41-1l.32.09.32-.05.44-.15-.4-.6-.07-1-.27-3.23-1.32-1.29c-1.63-.52-3.26-1.49-4.89-1.5q-28.92-.17-57.86,0c-1.61,0-3.22,1-4.82,1.58l-8.22,7.44c-.51,1.32-1,2.64-1.54,3.95a20.325,20.325,0,0,0-.91,4.18q-.09,29.79,0,59.58a19.512,19.512,0,0,0,.92,4.17l1.09,3,6.76,2c6.76,3,13.51,6.1,20.27,9.12,21.7,9.68,36.17,26.6,46.74,47.19,3.29,6.42,5.36,13.46,8,20.27.08,0,.31.12.4,0,21.4-15.62,49.43-8.32,61.27,13.74a5.19,5.19,0,0,0,3.82,2.28q13.98.3,28,0a5.93,5.93,0,0,0,4.18-2.49c9.15-15.25,22.26-22.94,40.24-21.47,2.64.22,3.85-.38,4.43-3.17,2.27-10.76-.63-20.16-7.46-28.35-10.43-12.51-26.16-12.28-40.9-17.19v21.8c0,2.67-.56,5.2-3.94,5.25s-3.87-2.62-3.9-5.21c-.06-6.16-.3-12.34.12-18.47.28-4.09-1-6.29-5-6.94-1-4.6-4.72-1.51-7-2.43l-5-1.4-4.06-.6C958.88,449.23,960.23,446.9,961.57,444.56Zm-3.08,112.27c.59.59,1.17,1.66,1.77,1.67,6.73.12,13.46.15,20.19,0,1,0,2.06-1,3.09-1.58.73-.87,2.06-1.7,2.1-2.6.22-4.56.1-9.14.1-13.69H958.49ZM778.62,501.59c.71.32,1.42.92,2.13.93,7.71.07,15.42.09,23.13,0,1,0,2-.84,3-1.28l12-21.57c1.16-3.06,4-6.81,3.16-9.06-2.79-7-7-13.5-10.67-20.19-1.16-3.38-3.18-6-7-5.82q-16.11.53-32.19,1.48a5.73,5.73,0,0,0-4,2.18c-3.95,6.5-7.45,13.27-11.4,19.76-2,3.21-1.31,5.92.36,8.78,4.09,7,8,14.14,12.37,21,1,1.66,3.41,2.49,5.17,3.7h3.05l1-.46A.83.83,0,0,0,778.62,501.59ZM902.41,359.34c4.48.06,9,.37,13.42,0,1.28-.1,3.43-2.17,3.44-3.35.13-14.92,0-29.84-.15-44.76v-5.79c-11.22,2.52-19.64,8.43-21.69,18.9-2.23,11.34-1.66,23.23-2.32,35ZM717.61,535c8.65.08,17.3.29,25.95.11,1.4,0,3.27-1.53,4.06-2.86q7.33-12.18,14.16-24.67a6,6,0,0,0,.13-4.92c-4-7.27-8.34-14.36-12.56-21.51-1.65-2.56-1.65-6.57-6.31-6.4-6.95.27-13.93.11-20.88.42-1.59.07-3.78.93-4.55,2.15-6,9.49-11.8,19.12-17.52,28.78-2.22,3.75-1.93,7.34.7,11.09a88.751,88.751,0,0,1,7.48,12.92C710.27,534.34,713,536.23,717.61,535Zm119.43-.3c8.94.18,17.89.46,26.83.4,1.22,0,2.83-1.5,3.57-2.72,4.21-6.95,8.33-14,12.19-21.13.81-1.51,1.19-4.08.46-5.46-4.17-7.88-8.74-15.54-13.16-23.28-2.65-5.24-6.57-7.56-12.73-7-6.43.57-13,.22-19.43,0a5.7,5.7,0,0,0-5.91,3.3c-4.4,8-9.18,15.75-13.46,23.8a7.62,7.62,0,0,0,0,6.12c3.95,7.47,8.56,14.6,12.51,22.08,2.09,4.19,4.86,5.45,9.09,3.91Zm-61,101c9.37.15,18.74.4,28.11.3,1.23,0,2.81-1.65,3.58-2.92,4.6-7.7,9.15-15.44,13.38-23.35a7.06,7.06,0,0,0-.09-5.71c-3.76-7-7.92-13.84-11.93-20.73-1.66-4.86-4.79-6.71-10.13-6.38-8.12.51-16.3.25-24.44.07-2.88-.06-4.48.9-5.87,3.43q-6.36,11.58-13.22,22.88c-1.64,2.7-1.94,4.76-.08,7.64,4,6.28,7.82,12.77,11.23,19.41,2.16,4.17,4.94,6.09,9.5,5.4ZM788,569.15c4.66,0,9.34.25,14-.13a7.31,7.31,0,0,0,5-2.76c5-8,9.69-16.27,14.21-24.59a6.41,6.41,0,0,0-.08-5.25c-4.52-8.31-9.23-16.52-14.21-24.56a7,7,0,0,0-5-2.76c-9-.27-18,0-26.94-.2-3.33-.09-5.09,1.13-6.6,4-3.09,5.87-6.13,11.85-10,17.23-4.37,6.1-5.46,11.55-.19,17.6a22.741,22.741,0,0,1,4,6.88C766.72,566.7,774.41,573.05,788,569.15Zm61.66-25.48c-7.23,0-12.07-.17-16.88.1a6.289,6.289,0,0,0-4.37,2.14c-5,8.23-9.8,16.59-14.45,25a5.28,5.28,0,0,0,0,4.4c4.65,8.45,9.41,16.84,14.46,25.06a7,7,0,0,0,5,2.79c8.48.28,17-.14,25.46.23,4.15.18,6.53-1.46,8.4-4.78,3-5.36,5.75-11,9.36-15.91,4.88-6.69,5.34-12.81-.14-19.23a15.28,15.28,0,0,1-2.52-4.29c-4.82-12.31-12.28-19.92-24.36-15.51Zm-120.45-.56h0c-4.83,0-9.68-.27-14.47.14a7.47,7.47,0,0,0-5,2.94c-3.84,6-7.38,12.26-10.72,18.57a8,8,0,0,0-.47,5.48,85.47,85.47,0,0,0,16.13,30.14,8.83,8.83,0,0,0,5.77,2.79q10.965.495,22,0a7.61,7.61,0,0,0,5.33-3c4.83-7.76,9.14-15.84,13.9-23.64,1.53-2.52,1.37-4.38-.07-6.76-3.78-6.26-7.81-12.43-10.86-19-2.85-6.17-6.88-8.65-13.51-7.62a72.389,72.389,0,0,1-8.07-.04Zm264.18,5.1a33,33,0,0,0,66,.74c.21-17.65-15-33.22-32.39-33.24-18.5-.02-33.61,14.6-33.65,32.5Zm-76.22,33.5a33.33,33.33,0,0,0,32-23.38c4.27-14.15-1.59-29.89-13.94-37.45-12.78-7.82-28.79-6.56-39.31,3.31a6.35,6.35,0,0,0-1.85,4.62A109.2,109.2,0,0,1,891.91,565a8,8,0,0,0,1.75,6.14c6.22,6.86,14.22,10.24,23.47,10.57Zm-62.69,29.41H831.32a2.27,2.27,0,0,0-1.68.87c-4,6.68-7.91,13.4-11.84,20.12,14.46-3.41,26.54-10.11,36.64-20.99Zm30-91.66c-4.15,7.11-7.66,13-11,19a3.351,3.351,0,0,0,.17,2.74c3.39,6,6.91,12,10.39,17.92,3.29-12.89,3.43-25.53.41-39.66ZM757.85,630.94c-3.65-6.36-7-12.34-10.53-18.27a2.83,2.83,0,0,0-1.91-1.37c-6.5-.11-13-.07-20-.07C731.88,619.16,748.23,629,757.85,630.94ZM820,449.42c3.59,6.2,6.68,11.63,9.88,17a2.79,2.79,0,0,0,1.94,1.25c6.53.09,13.05.05,20.25.05C847.07,461.48,829.43,451.41,820,449.42Zm-63.28,1.65-1.18-1.42c-8.14,4.91-16.32,9.77-24.36,14.85-.61.39-.19,2.42-.25,3.69,5,0,10,.68,14.78-.22,2.07-.39,3.78-3.83,5.22-6.15,2.12-3.46,3.87-7.16,5.78-10.75ZM696.25,525l-1.54-.19v30.11c10.74-14,10.79-14.71,2.62-28.29C697,526.1,696.61,525.56,696.25,525Zm-45.41,10.29h.49V490.58h-.49Z" transform="translate(-145.6 -75.65)" fill="#242320"/>
    <path id="Path_3" data-name="Path 3" d="M592.4,478.58c-1.17,3.83-2.92,7.6-3.35,11.51-.37,3.31.78,6.8,1.26,10.2-4.41-8-5.49-17-5.54-25.8q-.36-65.85,0-131.71c0-5.07,1.24-10.13,1.9-15.19q3,3.48,5.9,7-.13,11.55-.26,23.12c-.91,1.21-2.6,2.42-2.61,3.63q-.21,53.25,0,106.5c0,1.21,1.7,2.42,2.61,3.64Z" transform="translate(-145.6 -75.65)" fill="#282726"/>
    <path id="Path_4" data-name="Path 4" d="M957.53,451.57l4.06.6c-1.55,1.48-3.68,2.68-4.55,4.48-2.82,5.84-5,12-7.84,17.8-.64,1.31-3,1.77-4.54,2.62-.78-1.58-2.56-3.51-2.15-4.69a112.429,112.429,0,0,1,7.19-17.46c3.71-6.79,3.75-6.06-2.08-10.68l.09-9.1,6.88,5.39c0,3.09.06,6.19,0,9.28C954.53,452.25,955.52,452.7,957.53,451.57Z" transform="translate(-145.6 -75.65)" fill="#2f2722"/>
    <path id="Path_5" data-name="Path 5" d="M933,416.41l12.47,17.2c-.29,2.7-.57,5.41-.86,8.11l-4-3.29a18.132,18.132,0,0,1-4-.06c-2.12-.5-4.17-1.34-6.25-2v.06l1.32-1.59.16-.16,1.53-1.37h.66c-.09-.21-.19-.42-.28-.62l-.06-2.05-.82-1a.8.8,0,0,1-.37-.75l-1.5-2.17-.58-.87-1.11-2.16-.1.08c.28-1,1-2.21.75-3.09C929.13,417.81,930.46,416.78,933,416.41Z" transform="translate(-145.6 -75.65)" fill="#242320"/>
    <path id="Path_6" data-name="Path 6" d="M957.53,451.57c-2,1.13-3,.68-2.95-1.76.07-3.09,0-6.19,0-9.28l7,4C960.23,446.9,958.88,449.23,957.53,451.57Z" transform="translate(-145.6 -75.65)" fill="#2f2722"/>
    <path id="Path_7" data-name="Path 7" d="M591,502.56a29.625,29.625,0,0,0,4.67,3.33c4.21,1.88,3.53,4.64,1.78,7.75Z" transform="translate(-145.6 -75.65)" fill="#282726"/>
    <path id="Path_8" data-name="Path 8" d="M944.58,441.72c.29-2.7.57-5.41.86-8.11l2.27,1.53-.09,9.11Z" transform="translate(-145.6 -75.65)" fill="#242320"/>
    <path id="Path_9" data-name="Path 9" d="M933,416.41c-2.51.37-3.84,1.4-3,4.27.26.88-.47,2.05-.75,3.09l-1.83-3c2.14-1.68.09-6.45,4.67-6.32Z" transform="translate(-145.6 -75.65)" fill="#242320"/>
    <path id="Path_10" data-name="Path 10" d="M803.71,362.6a4.492,4.492,0,0,1,.31.71c0,.05-.24.16-.37.24Z" transform="translate(-145.6 -75.65)" fill="#0d0d0d"/>
    <path id="Path_11" data-name="Path 11" d="M668.6,533.49l-.3.27-.4-.07-9.5,1h0a36.763,36.763,0,0,0,1.13-6.23c.1-13.64,0-27.27.13-40.9a15.681,15.681,0,0,1,1.72-6.49c2.47-5.06,1.59-12.57-1.29-15.44.85-4.28,1.82-7.76,2.18-11.31s-.14-7,.18-10.49c.24-2.62.42-4.76-2.88-5.24l14.61-14.06,1.4.05h0c-.18,1.9-.36,3.81-.57,6.13l4.83-1.63c.77,3.5.83,6.6,2.24,8.88.66,1.07,3.91.55,6,.75.09-.57.18-1.15.26-1.73l-4.92-2.67c.5-.87.68-1.7,1.16-1.94,4.16-2.07,3.91-3.38,0-5.92-2.94-1.89-3.94-5.71-2.94-9.5a.45.45,0,0,1,.51-.48l1.55-1.66.16-.16,1.77-1.69,3.18-3.41.82-.87.16-.06,1.9-1.8,3.2-3.17h3.54a44.488,44.488,0,0,0,1.72-5.31,3.86,3.86,0,0,0-3.45-5l-2.14-.13-1.93.64-.8.76-1.3,1.33a.46.46,0,0,1-.5.51l-2.33,2.28-29.8,28.61V319.02c0-1.5.29-3.11-.17-4.46s-1.78-3.65-2.62-3.61c-1.54.08-3,1.57-4.51,2.47l-.1.24a46.046,46.046,0,0,0-.62,5.33q-.06,27.18,0,54.35v6.52c-7.54-7.39-14.38-14-21.15-20.77-3.07-3-5.94-6.27-9-9.31-2.08-2.06-4.36-5.1-7.49-2.09s-.6,5.4,1.57,7.63L650,392.46l.21,2.39c-.11,15-.27,29.94-.32,44.91v35.89a20.108,20.108,0,0,1-.78,3.16c-6.07-6.27-11.42-11.84-16.82-17.37-4.19-4.29-8.39-8.56-12.66-12.76-2.09-2.06-4.32-5.09-7.5-2.06s-.4,5.37,1.72,7.51c10.91,11,21.95,21.85,32.66,33a12.65,12.65,0,0,1,3.19,7.74c.33,11.81.14,23.64.11,35.46,0,1.63-.14,3.26-.22,4.83-18.93,2.05-45-16.64-52.21-37.18.08-3.33.24-6.65.24-10V348.55c0-11.2,1.84-21.88,7.35-32,9.44-17.4,24.44-26.42,43.23-28.91,15.25-2,28.8,3.73,40.41,13.56,13.2,11.13,22.39,24.8,26.12,41.87q-.08,45.66-.17,91.31c0,1.5.57,3.65-.2,4.38-4.75,4.52-2.49,10.18-2.69,15.31-.3,7.67.65,15.59-8.25,19.31l2.3,5.52-3.91,5.76c-.41.63-.82,1.26-1.22,1.89q-3.57,7-7.13,14.06l-.87,2-.79,2.08-1,2.58c-.14.78-.29,1.57-.43,2.35H688.6q-.14-3.22-.29-6.45l-2.12.54q1.22,3,2.41,5.91c.33.67.66,1.33,1,2l-1.74,7.1-1.14,5.4c-2.21,5.75-7.59,6.34-12.52,7.66l-3.47,1.17.09-.09Zm-3.22-52.74-1.31.5V522l1.89.09c.49-11.92,1.07-23.84,1.36-35.77C667.37,484.5,666.06,482.62,665.38,480.75Zm13.76,1.94,4.35-4.09c-1.06-1-2.39-3-3.12-2.77-2,.54-3.77,2-5.63,3.1Zm20.3.4,1.89-.75a80.942,80.942,0,0,0-4.1-9.15c-.33-.56-2.83.14-4.36.27ZM672.1,445.53c-2.39-1.43-4.13-3.06-4.72-2.72-1.5.88-2.47,2.64-3.65,4,1.12.9,2.47,2.71,3.32,2.5C668.57,449,669.79,447.38,672.1,445.53Zm.52,30.5-5.12-4.38c-1,1.23-2.49,2.36-2.72,3.72-.16.89,1.39,2.81,2.41,3s2.55-1.01,5.43-2.37Zm20.12-6.56h2.12c.31-1.85,1.16-3.83.76-5.51-.31-1.28-2.19-2.18-3.38-3.26-.43,1.5-1.27,3-1.19,4.5S692.14,468,692.74,469.47Zm16.81-6.88c-1.6-1.27-3.1-2.95-3.53-2.71a6.24,6.24,0,0,0-2.94,3.4c-.18.73,1.63,2,2.54,3Zm2.71-45.3h-1v12.58h1ZM691,497.84c.28.12.62.4.82.32s.26-.51.38-.79c-.28-.12-.62-.39-.81-.31S691.08,497.56,691,497.84Z" transform="translate(-145.6 -75.65)" fill="#f6d43f"/>
    <path id="Path_12" data-name="Path 12" d="M927.41,420.75l1.83,3,.1-.08,1.11,2.16.58.87,1.43,2.08a.8.8,0,0,0,.37.75l.82,1,.06,2.05a.6.6,0,0,0-.44.65h.06l-1.53,1.37-.16.16-1.32,1.59v-.06l-2.16,1.43c-8.68.51-13.88,5.47-14.39,14.37.82,2,1.21,5,2.59,5.57s4-1.06,5.88-2.06c.94-.49,1.42-1.78,2.25-2.55,5.35-4.91,10.74-9.78,16.11-14.66l4,3.29,3,2.53c5.83,4.61,5.79,3.88,2.08,10.67a112.407,112.407,0,0,0-7.19,17.46c-.41,1.18,1.37,3.11,2.15,4.69,1.56-.85,3.9-1.31,4.54-2.62,2.84-5.82,5-12,7.84-17.8.87-1.8,3-3,4.55-4.48l5,1.4,7,2.43c4,.65,5.27,2.85,5,6.94-.42,6.13-.18,12.31-.12,18.47,0,2.59.4,5.26,3.9,5.21s3.92-2.58,3.94-5.25v-21.8c14.74,4.91,30.47,4.68,40.9,17.19,6.83,8.19,9.73,17.59,7.46,28.35-.58,2.79-1.79,3.39-4.43,3.17-18-1.47-31.09,6.22-40.24,21.47a5.93,5.93,0,0,1-4.18,2.49q-13.98.345-28,0a5.19,5.19,0,0,1-3.82-2.28c-11.84-22.06-39.87-29.36-61.27-13.74-.09.07-.32,0-.4,0-2.64-6.81-4.71-13.85-8-20.27-10.57-20.59-25-37.51-46.74-47.19-6.76-3-13.51-6.08-20.26-9.12l.21-2a19.535,19.535,0,0,0,.93-4.17q.09-29.32,0-58.64a19.7,19.7,0,0,0-.91-4.18c0-6.2,1.84-8.2,7.87-8.21h61.93c.75,4,3.23,5.18,7.18,5,6.82-.29,13.65.08,20.47-.17,3.67-.14,4.59,1.36,4.4,4.7a97.543,97.543,0,0,0,0,12c.24,3.37-1.15,4.45-4.29,4.4-6.32-.1-12.65,0-19,0-2.61,0-5.49,0-5.55,3.45s2.63,4.08,5.6,4c6.49-.07,13,.05,19.48,0,2.59,0,4.16.72,4.18,3.59a14.315,14.315,0,0,0,.53,2.94c2,8.89,2,8.88-6.32,12.15-4.33,1.7-8.67,3.38-13,5.17-2.38,1-4.77,2.29-3.57,5.51s3.71,2.87,6.24,1.83c6.6-2.73,13.17-5.51,19.75-8.27a1,1,0,0,0,.93-.23l1.63.26,1.27,2Zm98.29,75.82c-.36-10.16-13.24-23.48-22-23.61-1.36,0-3.59,1.57-3.88,2.78s.84,4.08,1.93,4.43c8.66,2.79,13.85,8.57,16.64,17.07.4,1.2,3.17,2.34,4.73,2.2C1024.24,499.34,1025.22,497.14,1025.7,496.57Z" transform="translate(-145.6 -75.65)" fill="#ef5759"/>
    <path id="Path_13" data-name="Path 13" d="M788,569.15c-13.55,3.9-21.24-2.45-25.82-14.56a22.742,22.742,0,0,0-4-6.88c-5.27-6.05-4.18-11.5.19-17.6,3.85-5.38,6.89-11.36,10-17.23,1.51-2.85,3.27-4.07,6.6-4,9,.23,18-.07,26.94.2a7,7,0,0,1,5,2.76c5,8,9.69,16.25,14.21,24.56a6.41,6.41,0,0,1,.08,5.25c-4.52,8.32-9.23,16.54-14.21,24.59a7.31,7.31,0,0,1-5,2.76C797.3,569.4,792.62,569.15,788,569.15Z" transform="translate(-145.6 -75.65)" fill="#fafaf9"/>
    <path id="Path_14" data-name="Path 14" d="M849.62,543.67c12.08-4.41,19.54,3.2,24.31,15.54a15.279,15.279,0,0,0,2.52,4.29c5.48,6.42,5,12.54.14,19.23-3.61,4.95-6.33,10.55-9.36,15.91-1.87,3.32-4.25,5-8.4,4.78-8.47-.37-17,.05-25.46-.23a7,7,0,0,1-5-2.79c-5-8.22-9.81-16.61-14.46-25.06a5.28,5.28,0,0,1,0-4.4c4.65-8.44,9.44-16.8,14.45-25,.73-1.19,2.84-2.06,4.37-2.14C837.55,543.5,842.39,543.67,849.62,543.67Z" transform="translate(-145.6 -75.65)" fill="#fafafa"/>
    <path id="Path_15" data-name="Path 15" d="M729.17,543.11c2.66,0,5.38.34,8-.07,6.63-1,10.66,1.45,13.51,7.62,3.05,6.61,7.08,12.78,10.86,19,1.44,2.38,1.6,4.24.07,6.76-4.76,7.8-9.07,15.88-13.9,23.64a7.61,7.61,0,0,1-5.33,3q-10.95.525-22,0a8.83,8.83,0,0,1-5.77-2.79,85.471,85.471,0,0,1-16.13-30.14,8,8,0,0,1,.47-5.48c3.34-6.31,6.88-12.54,10.72-18.57a7.47,7.47,0,0,1,5-2.94c4.79-.41,9.64-.14,14.47-.14Z" transform="translate(-145.6 -75.65)" fill="#fbfbfa"/>
    <path id="Path_16" data-name="Path 16" d="M809.13,583.33c4,6.89,8.17,13.71,11.93,20.73a7.06,7.06,0,0,1,.09,5.71c-4.23,7.91-8.78,15.65-13.38,23.35-.77,1.27-2.35,2.91-3.58,2.92-9.37.1-18.74-.15-28.11-.3-1-2.07-1.93-4.2-3.07-6.2-3.61-6.36-7.41-12.61-10.87-19a6,6,0,0,1-.18-4.83c3.3-6.13,7.08-12,10.45-18.09,1.67-3,3.89-4.05,7.28-4C789.5,583.65,799.32,583.43,809.13,583.33Z" transform="translate(-145.6 -75.65)" fill="#54c7ea"/>
    <path id="Path_17" data-name="Path 17" d="M866.93,482.53c4.42,7.74,9,15.4,13.16,23.28.73,1.38.35,3.95-.46,5.46-3.86,7.15-8,14.18-12.19,21.13-.74,1.22-2.35,2.71-3.57,2.72-8.94.06-17.89-.22-26.84-.4-4.35-8.16-8.64-16.37-13.09-24.48-1.64-3-2.19-5.61-.17-8.78,3.2-5,6-10.28,8.86-15.5,1.33-2.44,3-3.42,5.94-3.37C848,482.77,857.47,482.58,866.93,482.53Z" transform="translate(-145.6 -75.65)" fill="#54c6e9"/>
    <path id="Path_18" data-name="Path 18" d="M993.35,548.21c0-17.9,15.15-32.52,33.58-32.5,17.43,0,32.6,15.59,32.39,33.24a33,33,0,0,1-66-.74Zm51.46.7a18.56,18.56,0,0,0-18.26-18.66,18.81,18.81,0,0,0-18.93,18.6c0,9.92,8.48,18.29,18.62,18.44a18.6,18.6,0,0,0,18.57-18.38Z" transform="translate(-145.6 -75.65)" fill="#f7f7f7"/>
    <path id="Path_19" data-name="Path 19" d="M749.35,481.17c4.22,7.15,8.55,14.24,12.56,21.51a6,6,0,0,1-.13,4.92q-6.81,12.49-14.16,24.67c-.79,1.33-2.66,2.83-4.06,2.86-8.65.18-17.3,0-25.95-.11-1.21-2.71-2.27-5.49-3.66-8.11-2.26-4.24-4.86-8.31-7-12.6-.65-1.27-1-3.38-.39-4.5,4.57-8.41,9.18-16.82,14.35-24.85,1.22-1.9,4.58-3.17,7.06-3.35C735,481.09,742.21,481.27,749.35,481.17Z" transform="translate(-145.6 -75.65)" fill="#54c6e8"/>
    <path id="Path_20" data-name="Path 20" d="M917.13,581.71c-9.25-.33-17.25-3.67-23.47-10.54a8,8,0,0,1-1.75-6.14A109.2,109.2,0,0,0,894,528.81a6.35,6.35,0,0,1,1.85-4.62c10.52-9.87,26.53-11.13,39.31-3.31,12.35,7.56,18.21,23.3,13.94,37.45A33.33,33.33,0,0,1,917.13,581.71Zm-18-33A18.5,18.5,0,1,0,917.515,530.1,18.5,18.5,0,0,0,899.13,548.71Z" transform="translate(-145.6 -75.65)" fill="#f5f6f6"/>
    <path id="Path_21" data-name="Path 21" d="M714.73,343.07c-3.74-17-12.92-30.74-26.06-41.86-11.61-9.83-25.16-15.58-40.41-13.56-18.79,2.49-33.79,11.51-43.23,28.91-5.51,10.15-7.34,20.83-7.35,32q-.07,69.72,0,139.43c0,3.33-.16,6.65-.24,10l-5-19.42q0-3.57-.11-7.12c.07-6,.2-12,.19-18q-.06-47.89-.19-95.81l.26-23.12c2.43-11.9,6.56-23.06,14.9-32.18,17.16-18.75,38.3-25.65,62.82-18.91,24.33,6.7,38.74,23.52,44.18,48,.85,3.79.58,7.82.83,11.74A1.539,1.539,0,0,0,714.73,343.07Z" transform="translate(-145.6 -75.65)" fill="#f6f4ec"/>
    <path id="Path_22" data-name="Path 22" d="M811.31,450.41c3.66,6.69,7.88,13.16,10.67,20.19.89,2.25-2,6-3.16,9.06-3.26.88-6.68,2.56-9.77,0-4-3.25-7.82-2.35-11.25.41-3.72,3-7,2.57-10.89.44-2.41-1.34-5.19-2.68-7.84-2.75-4.52-.11-8.72-.63-12.49-3.25l-3.22-4.1c2.64-4.72,5.73-9.25,7.83-14.2,2.74-6.47,8.59-7.25,13.88-7.4C793.8,448.63,802.56,449.82,811.31,450.41Z" transform="translate(-145.6 -75.65)" fill="#55c4e0" stroke="#55c4e0" stroke-width="1"/>
    <path id="Path_23" data-name="Path 23" d="M817.6,437.57l-.21,2-6.77-2c0-12.33,0-24.65.11-37,.08-12.65.22-25.3.33-37.95l8.22-7.45,67.57-.08,1.32,1.29c-.07,1.22-.15,2.43-.23,3.65,0,.43-.07.85-.1,1.27l-.42,1H825.49c-6,0-7.84,2-7.87,8.21Q817.61,404.08,817.6,437.57Z" transform="translate(-145.6 -75.65)" fill="#f5ebeb"/>
    <path id="Path_24" data-name="Path 24" d="M766.58,474.56c3.77,2.62,8,3.14,12.49,3.25,2.65.07,5.43,1.41,7.84,2.75,3.85,2.13,7.17,2.56,10.89-.44,3.43-2.76,7.24-3.66,11.25-.41,3.09,2.51,6.51.83,9.77,0l-12,21.57-28.24.36a.831.831,0,0,1,0-.54c-1-2.25-1.82-4.6-3-6.73-3.35-5.92-6.86-11.75-10.3-17.62.42-.71.85-1.41,1.27-2.11Z" transform="translate(-145.6 -75.65)" fill="#54c5e9"/>
    <path id="Path_25" data-name="Path 25" d="M919.12,311.22c.1,14.92.28,29.84.15,44.76,0,1.18-2.16,3.25-3.44,3.35a133.484,133.484,0,0,1-13.42,0c.06-6.95.46-13.91.09-20.84C901.8,325.47,906.88,316.23,919.12,311.22Z" transform="translate(-145.6 -75.65)" fill="#e9595a"/>
    <path id="Path_26" data-name="Path 26" d="M866.93,482.53c-9.46.05-18.91.24-28.36.06-2.93,0-4.61.93-5.94,3.37-2.85,5.22-5.66,10.48-8.86,15.5-2,3.17-1.47,5.78.17,8.78,4.45,8.11,8.74,16.32,13.09,24.48-4.26,1.54-7,.23-9.17-3.88-4-7.48-8.56-14.61-12.51-22.08a7.62,7.62,0,0,1,0-6.12c4.28-8.05,9.06-15.82,13.46-23.8a5.7,5.7,0,0,1,5.91-3.3c6.48.2,13,.55,19.43,0C860.36,475,864.28,477.29,866.93,482.53Z" transform="translate(-145.6 -75.65)" fill="#f2f6f6"/>
    <path id="Path_27" data-name="Path 27" d="M749.35,481.17c-7.14.1-14.31-.08-21.42.44-2.48.18-5.84,1.45-7.06,3.35-5.17,8-9.78,16.44-14.35,24.85-.62,1.12-.26,3.23.39,4.5,2.18,4.29,4.78,8.36,7,12.6,1.39,2.62,2.45,5.4,3.66,8.11-4.61,1.21-7.34-.68-9.34-4.89a88.757,88.757,0,0,0-7.48-12.92c-2.63-3.75-2.92-7.34-.7-11.09,5.72-9.66,11.51-19.29,17.52-28.78.77-1.22,3-2.08,4.55-2.15,7-.31,13.93-.15,20.88-.42C747.7,474.6,747.7,478.61,749.35,481.17Z" transform="translate(-145.6 -75.65)" fill="#eef2f2"/>
    <path id="Path_28" data-name="Path 28" d="M765.29,476.7c3.44,5.87,7,11.7,10.3,17.62,1.21,2.13,2,4.48,3,6.73l-1,.46h-3.05c-1.76-1.21-4.12-2-5.17-3.7-4.34-6.86-8.28-14-12.37-21-1.67-2.86-2.32-5.57-.36-8.78,4-6.49,7.45-13.26,11.4-19.76a5.73,5.73,0,0,1,4-2.18q16.08-1,32.19-1.48c3.86-.13,5.88,2.44,7,5.82-8.75-.59-17.51-1.78-26.24-1.55-5.29.15-11.14.93-13.88,7.4-2.1,4.95-5.19,9.48-7.83,14.2.33,1.4.66,2.8,1,4.19A18.262,18.262,0,0,1,765.29,476.7Z" transform="translate(-145.6 -75.65)" fill="#eef2f2"/>
    <path id="Path_29" data-name="Path 29" d="M809.13,583.33c-9.81.1-19.63.32-29.44.23-3.39,0-5.61,1-7.28,4-3.37,6.09-7.15,12-10.45,18.09a6,6,0,0,0,.18,4.83c3.46,6.43,7.26,12.68,10.87,19,1.14,2,2,4.13,3.07,6.2-4.56.69-7.34-1.23-9.46-5.36-3.41-6.64-7.19-13.13-11.23-19.41-1.86-2.88-1.56-4.94.08-7.64q6.84-11.31,13.22-22.88a5.724,5.724,0,0,1,5.87-3.43c8.14.18,16.32.44,24.44-.07C804.34,576.62,807.47,578.47,809.13,583.33Z" transform="translate(-145.6 -75.65)" fill="#eff4f5"/>
    <path id="Path_30" data-name="Path 30" d="M958.49,556.83V540.64h27.25c0,4.55.12,9.13-.1,13.69,0,.9-1.37,1.73-2.1,2.6Z" transform="translate(-145.6 -75.65)" fill="#f7f7f7"/>
    <path id="Path_31" data-name="Path 31" d="M919.12,311.22c-12.24,5-17.32,14.25-16.62,27.28.37,6.93,0,13.89-.09,20.84h-7.3c.66-11.78.09-23.67,2.32-35,2.05-10.47,10.47-16.38,21.69-18.9Z" transform="translate(-145.6 -75.65)" fill="#f4efee"/>
    <path id="Path_32" data-name="Path 32" d="M854.44,611.12c-10.1,10.91-22.18,17.58-36.68,21,3.93-6.72,7.85-13.44,11.84-20.12a2.27,2.27,0,0,1,1.68-.87C839,611.1,846.72,611.12,854.44,611.12Z" transform="translate(-145.6 -75.65)" fill="#4fc0e0"/>
    <path id="Path_33" data-name="Path 33" d="M884.45,519.46c3,14.13,2.88,26.77-.47,39.68-3.48-6-7-11.91-10.39-17.92a3.35,3.35,0,0,1-.17-2.74C876.79,532.48,880.3,526.57,884.45,519.46Z" transform="translate(-145.6 -75.65)" fill="#4fc0e0"/>
    <path id="Path_34" data-name="Path 34" d="M757.85,630.94c-9.62-1.9-26-11.78-32.49-19.71,7,0,13.55,0,20,.07a2.83,2.83,0,0,1,1.91,1.37C750.81,618.6,754.2,624.58,757.85,630.94Z" transform="translate(-145.6 -75.65)" fill="#4fc0e0"/>
    <path id="Path_35" data-name="Path 35" d="M659.56,438.58c3.3.48,3.12,2.62,2.88,5.24-.32,3.48.18,7-.18,10.49s-1.33,7-2.18,11.31c2.88,2.87,3.76,10.38,1.29,15.44a15.679,15.679,0,0,0-1.72,6.49c-.15,13.63,0,27.26-.13,40.9a36.762,36.762,0,0,1-1.13,6.23,12,12,0,0,1-.49-2.38c-.17-28.28-.37-56.55-.35-84.83C657.55,444.51,658.86,441.55,659.56,438.58Z" transform="translate(-145.6 -75.65)" fill="#f4d23f"/>
    <path id="Path_36" data-name="Path 36" d="M820,449.42c9.44,2,27.08,12.06,32.07,18.3-7.2,0-13.72,0-20.25-.05a2.79,2.79,0,0,1-1.94-1.25C826.67,461.05,823.58,455.62,820,449.42Z" transform="translate(-145.6 -75.65)" fill="#eef2f2"/>
    <path id="Path_37" data-name="Path 37" d="M714.73,343.07a1.54,1.54,0,0,1,.55.14c.09,5.65.24,11.29.26,16.93.07,31.26-.32,62.52.4,93.76.25,10.41-2.74,18.33-10.22,25l-2.3-5.52c8.9-3.72,8-11.64,8.25-19.31.2-5.13-2.06-10.79,2.69-15.31.77-.73.2-2.88.2-4.38Q714.65,388.74,714.73,343.07Z" transform="translate(-145.6 -75.65)" fill="#f4d23f"/>
    <path id="Path_38" data-name="Path 38" d="M756.71,451.07c-1.91,3.59-3.66,7.29-5.79,10.75-1.44,2.32-3.15,5.76-5.22,6.15-4.77.9-9.83.24-14.78.22.06-1.27-.36-3.3.25-3.69,8-5.08,16.22-9.94,24.36-14.85Z" transform="translate(-145.6 -75.65)" fill="#e4e4e3"/>
    <path id="Path_39" data-name="Path 39" d="M696.25,525c.36.54.74,1.08,1.08,1.63,8.17,13.58,8.12,14.32-2.62,28.29V524.83Z" transform="translate(-145.6 -75.65)" fill="#4fc0e0"/>
    <path id="Path_40" data-name="Path 40" d="M681.58,416.94c-1,3.79,0,7.61,2.94,9.5,4,2.54,4.2,3.85,0,5.92-.48.24-.66,1.07-1.16,1.94l4.92,2.67c-.08.58-.17,1.16-.26,1.73-2.07-.2-5.32.32-6-.75-1.41-2.28-1.47-5.38-2.24-8.88L675,430.7c.21-2.32.39-4.23.57-6.13l.85-2.43Z" transform="translate(-145.6 -75.65)" fill="#f4d23f"/>
    <path id="Path_41" data-name="Path 41" d="M886.85,355.14l-67.57.08c1.6-.55,3.21-1.57,4.82-1.58q28.93-.17,57.86,0C883.59,353.65,885.22,354.62,886.85,355.14Z" transform="translate(-145.6 -75.65)" fill="#0d0d0d"/>
    <path id="Path_42" data-name="Path 42" d="M811.06,362.66c-.11,12.66-.25,25.31-.33,38-.07,12.32-.07,24.64-.11,37-.36-1-.73-2-1.09-3V366.73C810,365.3,810.55,364,811.06,362.66Z" transform="translate(-145.6 -75.65)" fill="#0d0d0d"/>
    <path id="Path_43" data-name="Path 43" d="M809.52,366.61v67.93a19.512,19.512,0,0,1-.92-4.17q-.09-29.79,0-59.58A20.331,20.331,0,0,1,809.52,366.61Z" transform="translate(-145.6 -75.65)" fill="#282726"/>
    <path id="Path_44" data-name="Path 44" d="M650.58,313.45c.32.73.93,1.47.93,2.2,0,20.57,0,41.14-1,61.71V313.69Z" transform="translate(-145.6 -75.65)" fill="#1e0e01"/>
    <path id="Path_45" data-name="Path 45" d="M958.49,556.83l25,.1c-1,.55-2,1.55-3.09,1.58-6.73.14-13.46.11-20.19,0C959.66,558.49,959.08,557.42,958.49,556.83Z" transform="translate(-145.6 -75.65)" fill="#0d0d0d"/>
    <path id="Path_46" data-name="Path 46" d="M650.17,394.85l-.21-2.39c.54.32,1.56.63,1.56.94.07,15,.06,30.07.06,45.11h-1.41Z" transform="translate(-145.6 -75.65)" fill="#1e0e01"/>
    <path id="Path_47" data-name="Path 47" d="M650.84,535.31V490.59h.49v44.76Z" transform="translate(-145.6 -75.65)" fill="#1e0e01"/>
    <path id="Path_48" data-name="Path 48" d="M778.62,501.59l28.24-.36c-1,.44-2,1.26-3,1.28-7.71.1-15.42.08-23.13,0C780,502.51,779.33,501.91,778.62,501.59Z" transform="translate(-145.6 -75.65)" fill="#0d0d0d"/>
    <path id="Path_49" data-name="Path 49" d="M696.64,393.37a3.86,3.86,0,0,1,3.45,5,44.5,44.5,0,0,1-1.72,5.31h-3.54C697,400.48,702,397.85,696.64,393.37Z" transform="translate(-145.6 -75.65)" fill="#f4d23f"/>
    <path id="Path_50" data-name="Path 50" d="M973.741,455.931l-7.141-2.484C968.88,454.367,972.711,451.331,973.741,455.931Z" transform="translate(-145.6 -75.65)" fill="#2f2722"/>
    <path id="Path_51" data-name="Path 51" d="M658.4,534.72l9.5-1Z" transform="translate(-145.6 -75.65)" fill="#f4d23f"/>
    <path id="Path_52" data-name="Path 52" d="M887.94,360.08c.08-1.22.16-2.43.23-3.65l.27,3.23H888Z" transform="translate(-145.6 -75.65)" fill="#0d0d0d"/>
    <path id="Path_53" data-name="Path 53" d="M686.69,524.07l1.14-5.4Z" transform="translate(-145.6 -75.65)" fill="#f4d23f"/>
    <path id="Path_54" data-name="Path 54" d="M687.64,398.76l2.33-2.28Z" transform="translate(-145.6 -75.65)" fill="#f4d23f"/>
    <path id="Path_55" data-name="Path 55" d="M689.57,511.57c-.34-.67-.67-1.33-1-2h1.77C690.08,510.24,689.82,510.91,689.57,511.57Z" transform="translate(-145.6 -75.65)" fill="#f4d23f"/>
    <path id="Path_56" data-name="Path 56" d="M774.54,501.49h0Z" transform="translate(-145.6 -75.65)" fill="#0d0d0d"/>
    <path id="Path_57" data-name="Path 57" d="M692.57,393.88l1.93-.64Z" transform="translate(-145.6 -75.65)" fill="#f4d23f"/>
    <path id="Path_58" data-name="Path 58" d="M670.7,532.9l3.47-1.17Z" transform="translate(-145.6 -75.65)" fill="#f4d23f"/>
    <path id="Path_59" data-name="Path 59" d="M685.57,413l-1.77,1.69Z" transform="translate(-145.6 -75.65)" fill="#f4d23f"/>
    <path id="Path_60" data-name="Path 60" d="M691.63,406.81l-1.9,1.8Z" transform="translate(-145.6 -75.65)" fill="#f4d23f"/>
    <path id="Path_61" data-name="Path 61" d="M668.6,533.49l2.19-.68Z" transform="translate(-145.6 -75.65)" fill="#f4d23f"/>
    <path id="Path_62" data-name="Path 62" d="M887.94,360.08l.07-.42h.43a4.857,4.857,0,0,0,.07,1,.93.93,0,0,0,0,.75l-.32.05-.32-.09C887.87,360.93,887.91,360.51,887.94,360.08Z" transform="translate(-145.6 -75.65)" fill="#ef5759"/>
    <path id="Path_63" data-name="Path 63" d="M676.43,422.14l-.85,2.43h0v-1.65Z" transform="translate(-145.6 -75.65)" fill="#f6d43f"/>
    <path id="Path_64" data-name="Path 64" d="M675.58,422.92v1.65l-1.4-.05Z" transform="translate(-145.6 -75.65)" fill="#f4d23f"/>
    <path id="Path_65" data-name="Path 65" d="M927.45,420.67l-1.27-2Z" transform="translate(-145.6 -75.65)" fill="#2f2722"/>
    <path id="Path_66" data-name="Path 66" d="M700.59,486.55c.4-.63.81-1.26,1.22-1.89C701.4,485.29,701,485.92,700.59,486.55Z" transform="translate(-145.6 -75.65)" fill="#f4d23f"/>
    <path id="Path_67" data-name="Path 67" d="M683.64,414.8l-1.55,1.66Z" transform="translate(-145.6 -75.65)" fill="#f4d23f"/>
    <path id="Path_68" data-name="Path 68" d="M692.59,502.57l.87-2Z" transform="translate(-145.6 -75.65)" fill="#f4d23f"/>
    <path id="Path_69" data-name="Path 69" d="M690.47,396l1.3-1.33Z" transform="translate(-145.6 -75.65)" fill="#f4d23f"/>
    <path id="Path_70" data-name="Path 70" d="M690.77,507.23l1-2.58Z" transform="translate(-145.6 -75.65)" fill="#f4d23f"/>
    <path id="Path_71" data-name="Path 71" d="M924.55,418.43a1,1,0,0,1-.93.23Z" transform="translate(-145.6 -75.65)" fill="#2f2722"/>
    <path id="Path_72" data-name="Path 72" d="M888.47,361.4a.93.93,0,0,1,0-.75l.4.6Z" transform="translate(-145.6 -75.65)" fill="#0d0d0d"/>
    <path id="Path_73" data-name="Path 73" d="M689.57,408.67l-.82.87Z" transform="translate(-145.6 -75.65)" fill="#f4d23f"/>
    <path id="Path_74" data-name="Path 74" d="M592.29,357.69q.11,47.91.19,95.81c0,6-.12,12-.19,18-.91-1.22-2.6-2.43-2.61-3.64q-.21-53.25,0-106.5C589.69,360.11,591.38,358.9,592.29,357.69Z" transform="translate(-145.6 -75.65)" fill="#242320"/>
    <path id="Path_75" data-name="Path 75" d="M928.14,437.76l2.16-1.43a58.745,58.745,0,0,0,6.24,2,18.13,18.13,0,0,0,4,.06c-5.37,4.88-10.76,9.75-16.11,14.66-.83.77-1.31,2.06-2.25,2.55-1.89,1-4.39,2.64-5.88,2.06s-1.77-3.61-2.59-5.57Q920.94,444.93,928.14,437.76Z" transform="translate(-145.6 -75.65)" fill="#2f2722"/>
    <path id="Path_76" data-name="Path 76" d="M930.32,436.39l1.32-1.59Z" transform="translate(-145.6 -75.65)" fill="#2f2722"/>
    <path id="Path_77" data-name="Path 77" d="M931.8,434.64l1.53-1.37Z" transform="translate(-145.6 -75.65)" fill="#2f2722"/>
    <path id="Path_78" data-name="Path 78" d="M933.65,430.55l-.82-1Z" transform="translate(-145.6 -75.65)" fill="#2f2722"/>
    <path id="Path_79" data-name="Path 79" d="M932.46,428.8,931,426.72Z" transform="translate(-145.6 -75.65)" fill="#2f2722"/>
    <path id="Path_80" data-name="Path 80" d="M930.45,425.85l-1.11-2.16Z" transform="translate(-145.6 -75.65)" fill="#2f2722"/>
    <path id="Path_81" data-name="Path 81" d="M933.27,433.25a.6.6,0,0,1,.44-.65c.09.2.19.41.28.62Z" transform="translate(-145.6 -75.65)" fill="#2f2722"/>
    <path id="Path_82" data-name="Path 82" d="M665.38,480.75c.68,1.87,2,3.75,1.94,5.59-.29,11.93-.87,23.85-1.36,35.77l-1.89-.09V481.25Z" transform="translate(-145.6 -75.65)" fill="#f4d23f"/>
    <path id="Path_83" data-name="Path 83" d="M679.14,482.69l-4.4-3.76c1.86-1.1,3.62-2.56,5.63-3.1.73-.2,2.06,1.78,3.12,2.77Z" transform="translate(-145.6 -75.65)" fill="#f4d23f"/>
    <path id="Path_84" data-name="Path 84" d="M699.44,483.09l-6.57-9.63c1.53-.13,4-.83,4.36-.27a80.945,80.945,0,0,1,4.1,9.15Z" transform="translate(-145.6 -75.65)" fill="#f4d23f"/>
    <path id="Path_85" data-name="Path 85" d="M672.1,445.53c-2.31,1.85-3.53,3.45-5.05,3.82-.85.21-2.2-1.6-3.32-2.5,1.18-1.4,2.15-3.16,3.65-4C668,442.47,669.71,444.1,672.1,445.53Z" transform="translate(-145.6 -75.65)" fill="#f4d23f"/>
    <path id="Path_86" data-name="Path 86" d="M672.62,476c-2.88,1.33-4.29,2.55-5.43,2.34s-2.57-2.11-2.41-3c.23-1.36,1.75-2.49,2.72-3.72Z" transform="translate(-145.6 -75.65)" fill="#f4d23f"/>
    <path id="Path_87" data-name="Path 87" d="M692.74,469.47c-.6-1.43-1.61-2.83-1.69-4.29s.76-3,1.19-4.5c1.19,1.08,3.07,2,3.38,3.26.4,1.68-.45,3.66-.76,5.51Z" transform="translate(-145.6 -75.65)" fill="#f4d23f"/>
    <path id="Path_88" data-name="Path 88" d="M709.55,462.59l-3.93,3.65c-.91-1-2.72-2.23-2.54-3a6.24,6.24,0,0,1,2.94-3.4C706.45,459.64,708,461.32,709.55,462.59Z" transform="translate(-145.6 -75.65)" fill="#f4d23f"/>
    <path id="Path_89" data-name="Path 89" d="M712.26,417.29v12.57h-1V417.31Z" transform="translate(-145.6 -75.65)" fill="#f4d23f"/>
    <path id="Path_90" data-name="Path 90" d="M688.57,509.57q-1.2-3-2.41-5.91l2.12-.54Q688.43,506.34,688.57,509.57Z" transform="translate(-145.6 -75.65)" fill="#f4d23f"/>
    <path id="Path_91" data-name="Path 91" d="M691,497.84c.13-.28.19-.7.39-.78s.53.19.81.31c-.12.28-.18.71-.38.79S691.23,498,691,497.84Z" transform="translate(-145.6 -75.65)" fill="#f4d23f"/>
    <path id="Path_92" data-name="Path 92" d="M1025.7,496.57c-.48.57-1.46,2.77-2.62,2.87-1.56.14-4.33-1-4.73-2.2-2.79-8.5-8-14.28-16.64-17.07-1.09-.35-2.24-3.12-1.93-4.43s2.52-2.8,3.88-2.78C1012.46,473.09,1025.34,486.41,1025.7,496.57Z" transform="translate(-145.6 -75.65)" fill="#2a1c18"/>
    <path id="Path_93" data-name="Path 93" d="M817.6,437.57v-67a19.693,19.693,0,0,1,.91,4.18q.09,29.33,0,58.64a19.544,19.544,0,0,1-.91,4.18Z" transform="translate(-145.6 -75.65)" fill="#e9595a"/>
    <path id="Path_94" data-name="Path 94" d="M928.14,437.76l-14.39,14.37C914.26,443.23,919.46,438.27,928.14,437.76Z" transform="translate(-145.6 -75.65)" fill="#e9595a"/>
    <path id="Path_95" data-name="Path 95" d="M1044.81,548.91a18.6,18.6,0,0,1-18.57,18.38c-10.14-.15-18.6-8.52-18.62-18.44a18.81,18.81,0,0,1,18.93-18.6,18.56,18.56,0,0,1,18.26,18.66Zm-8,.38a10.42,10.42,0,0,0-9.85-11.06,10.66,10.66,0,0,0-11.25,9.73,10.87,10.87,0,0,0,10.18,11.41,10.61,10.61,0,0,0,10.9-10.08Z" transform="translate(-145.6 -75.65)" fill="#282726"/>
    <path id="Path_96" data-name="Path 96" d="M899.13,548.73A18.48,18.48,0,1,1,918,567.32a18.69,18.69,0,0,1-18.87-18.59Zm29-.07a10.48,10.48,0,0,0-10.49-10.47A10.86,10.86,0,0,0,907,548.56c-.17,5.66,5.1,10.91,10.85,10.83a10.82,10.82,0,0,0,10.32-10.73Z" transform="translate(-145.6 -75.65)" fill="#282726"/>
    <path id="Path_97" data-name="Path 97" d="M764.34,474.65c-.32-1.39-.65-2.79-1-4.19l3.22,4.1h0Z" transform="translate(-145.6 -75.65)" fill="#54c5e9"/>
    <path id="Path_98" data-name="Path 98" d="M764.34,474.65l2.22-.06c-.42.7-.85,1.4-1.27,2.11C765,476,764.66,475.34,764.34,474.65Z" transform="translate(-145.6 -75.65)" fill="#55c4e0"/>
    <path id="Path_99" data-name="Path 99" d="M1036.79,549.29a10.61,10.61,0,0,1-10.92,10.08A10.87,10.87,0,0,1,1015.69,548a10.66,10.66,0,0,1,11.25-9.73,10.42,10.42,0,0,1,9.85,11.02Z" transform="translate(-145.6 -75.65)" fill="#f5f6f6"/>
    <path id="Path_100" data-name="Path 100" d="M928.17,548.66a10.82,10.82,0,0,1-10.35,10.73c-5.75.08-11-5.17-10.85-10.83a10.86,10.86,0,0,1,10.71-10.37A10.48,10.48,0,0,1,928.17,548.66Z" transform="translate(-145.6 -75.65)" fill="#f5f6f6"/>
  </g>
</svg>
